<svg width="512" height="512" viewBox="0 0 512 512" fill="none" xmlns="http://www.w3.org/2000/svg">
<path d="M305.453 465.261C304.092 465.271 304.092 465.271 302.704 465.282C301.717 465.28 300.729 465.277 299.711 465.275C298.665 465.28 297.62 465.285 296.542 465.29C293.081 465.304 289.621 465.303 286.16 465.301C283.757 465.305 281.353 465.309 278.949 465.314C273.91 465.321 268.87 465.321 263.831 465.316C257.37 465.31 250.909 465.327 244.448 465.35C239.483 465.365 234.519 465.366 229.555 465.363C227.172 465.363 224.79 465.368 222.408 465.378C219.078 465.391 215.748 465.384 212.418 465.372C210.94 465.384 210.94 465.384 209.432 465.396C200.885 465.33 200.885 465.33 197 462C195.98 460.246 194.962 458.489 194.028 456.688C192.988 454.762 192.988 454.762 190.563 453.063C185.209 448.753 182.269 442.699 181 436C180.682 431.702 180.652 427.41 180.621 423.102C180.604 421.871 180.587 420.64 180.57 419.372C180.517 415.457 180.476 411.541 180.438 407.625C180.395 403.688 180.347 399.751 180.295 395.814C180.263 393.366 180.236 390.919 180.215 388.472C180.201 387.373 180.188 386.275 180.174 385.143C180.164 384.172 180.155 383.2 180.145 382.199C180.244 380.025 180.244 380.025 179 379C178.901 377.164 178.872 375.325 178.871 373.486C178.868 372.308 178.865 371.131 178.861 369.917C178.864 367.994 178.864 367.994 178.867 366.031C178.866 364.726 178.865 363.42 178.865 362.074C178.863 359.307 178.865 356.539 178.87 353.772C178.876 350.217 178.872 346.663 178.866 343.108C178.862 339.728 178.865 336.349 178.867 332.969C178.865 331.687 178.863 330.404 178.861 329.083C178.866 327.316 178.866 327.316 178.871 325.514C178.872 324.471 178.872 323.428 178.873 322.353C179 320 179 320 180 319C180.11 316.766 180.147 314.528 180.158 312.291C180.163 311.581 180.168 310.87 180.173 310.138C180.189 307.736 180.197 305.334 180.206 302.932C180.215 301.215 180.225 299.498 180.236 297.781C180.263 293.083 180.284 288.385 180.304 283.687C180.325 278.717 180.353 273.748 180.38 268.779C180.424 260.37 180.465 251.961 180.503 243.552C180.551 232.955 180.605 222.357 180.661 211.76C180.715 201.499 180.767 191.238 180.817 180.977C180.822 179.973 180.826 178.97 180.831 177.936C180.932 157.255 181.02 136.575 180.992 115.894C180.991 114.813 180.991 114.813 180.989 113.71C180.981 106.539 180.965 99.3683 180.935 92.1974C180.929 90.0123 180.923 87.8272 180.918 85.6421C180.911 84.6607 180.905 83.6793 180.898 82.6682C180.897 81.7917 180.895 80.9151 180.894 80.0121C180.89 79.2546 180.887 78.4971 180.883 77.7167C181 76 181 76.0001 182 75.0001C182.42 71.4767 182.773 67.9502 183.11 64.418C184.191 60.267 185.417 59.2409 189 57.0001C221.663 38.699 276.918 44.6954 311.688 52.3126C312.531 52.4888 313.375 52.665 314.244 52.8465C319.892 54.214 324.368 56.3197 328 61.0001C329.086 64.6133 329.086 64.6133 329.375 68.3126C329.371 72.4778 329.371 72.4778 331 76.0001C331.092 77.5655 331.113 79.1351 331.107 80.7032C331.105 81.7296 331.104 82.756 331.102 83.8134C331.096 84.9577 331.089 86.1021 331.082 87.2811C331.08 88.4907 331.077 89.7002 331.074 90.9465C331.068 93.6246 331.061 96.3026 331.051 98.9807C331.023 106.495 331.017 114.009 331.009 121.523C331.008 122.331 331.006 123.139 331.005 123.972C330.98 145.024 331.077 166.077 331.184 187.129C331.189 188.094 331.194 189.058 331.199 190.052C331.249 199.891 331.301 209.729 331.356 219.568C331.412 229.719 331.464 239.87 331.512 250.021C331.55 258.004 331.592 265.988 331.637 273.971C331.664 278.692 331.688 283.412 331.709 288.132C331.729 292.508 331.753 296.885 331.781 301.261C331.79 302.865 331.798 304.469 331.804 306.074C331.812 308.251 331.826 310.427 331.842 312.604C331.848 313.823 331.855 315.042 331.862 316.297C331.693 318.916 331.693 318.916 333 320C333.099 321.836 333.128 323.675 333.13 325.514C333.133 326.692 333.136 327.87 333.139 329.083C333.137 330.365 333.135 331.648 333.133 332.969C333.134 334.275 333.135 335.58 333.136 336.926C333.137 339.693 333.135 342.461 333.131 345.228C333.125 348.783 333.128 352.337 333.134 355.892C333.139 359.272 333.136 362.651 333.133 366.031C333.135 367.314 333.137 368.596 333.139 369.917C333.136 371.095 333.133 372.273 333.13 373.486C333.129 374.529 333.128 375.572 333.127 376.647C333 379 333 379 332 380C331.898 381.727 331.865 383.458 331.858 385.187C331.848 386.851 331.848 386.851 331.837 388.547C331.833 389.758 331.829 390.968 331.824 392.215C331.801 394.764 331.777 397.313 331.752 399.861C331.716 403.89 331.686 407.919 331.674 411.948C331.659 415.829 331.618 419.709 331.574 423.59C331.576 424.782 331.578 425.974 331.58 427.202C331.421 438.156 328.772 446.187 321 454C320.485 454.495 319.969 454.99 319.438 455.5C317.767 457.143 317.767 457.143 316.063 460.063C313.087 464.3 310.539 465.247 305.453 465.261Z" fill="#ECECEC"/>
<path d="M305.453 465.261C304.092 465.271 304.092 465.271 302.704 465.282C301.717 465.28 300.729 465.277 299.711 465.275C298.665 465.28 297.62 465.285 296.542 465.29C293.081 465.304 289.621 465.303 286.16 465.301C283.757 465.305 281.353 465.309 278.949 465.314C273.91 465.321 268.87 465.321 263.831 465.316C257.37 465.31 250.909 465.327 244.448 465.35C239.483 465.365 234.519 465.366 229.555 465.363C227.172 465.363 224.79 465.368 222.408 465.378C219.078 465.391 215.748 465.384 212.418 465.372C210.94 465.384 210.94 465.384 209.432 465.396C200.885 465.33 200.885 465.33 197 462C195.98 460.246 194.962 458.489 194.028 456.688C192.988 454.762 192.988 454.762 190.563 453.063C185.209 448.753 182.269 442.699 181 436C180.682 431.702 180.652 427.41 180.621 423.102C180.604 421.871 180.587 420.64 180.57 419.372C180.517 415.457 180.476 411.541 180.438 407.625C180.395 403.688 180.347 399.751 180.295 395.814C180.263 393.366 180.236 390.919 180.215 388.472C180.201 387.373 180.188 386.275 180.174 385.143C180.164 384.172 180.155 383.2 180.145 382.199C180.244 380.025 180.244 380.025 179 379C178.901 377.164 178.872 375.325 178.871 373.486C178.868 372.308 178.865 371.131 178.861 369.917C178.864 367.994 178.864 367.994 178.867 366.031C178.866 364.726 178.865 363.42 178.865 362.074C178.863 359.307 178.865 356.539 178.87 353.772C178.876 350.217 178.872 346.663 178.866 343.108C178.862 339.728 178.865 336.349 178.867 332.969C178.865 331.687 178.863 330.404 178.861 329.083C178.866 327.316 178.866 327.316 178.871 325.514C178.872 324.471 178.872 323.428 178.873 322.353C179 320 179 320 180 319C180.11 316.766 180.147 314.528 180.158 312.291C180.163 311.581 180.168 310.87 180.173 310.138C180.189 307.736 180.197 305.334 180.206 302.932C180.215 301.215 180.225 299.498 180.236 297.781C180.263 293.083 180.284 288.385 180.304 283.687C180.325 278.717 180.353 273.748 180.38 268.779C180.424 260.37 180.465 251.961 180.503 243.552C180.551 232.955 180.605 222.357 180.661 211.76C180.715 201.499 180.767 191.238 180.817 180.977C180.822 179.973 180.826 178.97 180.831 177.936C180.932 157.255 181.02 136.575 180.992 115.894C180.991 114.813 180.991 114.813 180.989 113.71C180.981 106.539 180.965 99.3683 180.935 92.1974C180.929 90.0123 180.923 87.8272 180.918 85.6421C180.911 84.6607 180.905 83.6793 180.898 82.6682C180.897 81.7917 180.895 80.9151 180.894 80.0121C180.89 79.2546 180.887 78.4971 180.883 77.7167C181 76 181 76.0001 182 75.0001C182.42 71.4767 182.773 67.9502 183.11 64.418C184.191 60.267 185.417 59.2409 189 57.0001C221.663 38.699 276.918 44.6954 311.688 52.3126C312.531 52.4888 313.375 52.665 314.244 52.8465C319.892 54.214 324.368 56.3197 328 61.0001C329.086 64.6133 329.086 64.6133 329.375 68.3126C329.371 72.4778 329.371 72.4778 331 76.0001C331.092 77.5655 331.113 79.1351 331.107 80.7032C331.105 81.7296 331.104 82.756 331.102 83.8134C331.096 84.9577 331.089 86.1021 331.082 87.2811C331.08 88.4907 331.077 89.7002 331.074 90.9465C331.068 93.6246 331.061 96.3026 331.051 98.9807C331.023 106.495 331.017 114.009 331.009 121.523C331.008 122.331 331.006 123.139 331.005 123.972C330.98 145.024 331.077 166.077 331.184 187.129C331.189 188.094 331.194 189.058 331.199 190.052C331.249 199.891 331.301 209.729 331.356 219.568C331.412 229.719 331.464 239.87 331.512 250.021C331.55 258.004 331.592 265.988 331.637 273.971C331.664 278.692 331.688 283.412 331.709 288.132C331.729 292.508 331.753 296.885 331.781 301.261C331.79 302.865 331.798 304.469 331.804 306.074C331.812 308.251 331.826 310.427 331.842 312.604C331.848 313.823 331.855 315.042 331.862 316.297C331.693 318.916 331.693 318.916 333 320C333.099 321.836 333.128 323.675 333.13 325.514C333.133 326.692 333.136 327.87 333.139 329.083C333.137 330.365 333.135 331.648 333.133 332.969C333.134 334.275 333.135 335.58 333.136 336.926C333.137 339.693 333.135 342.461 333.131 345.228C333.125 348.783 333.128 352.337 333.134 355.892C333.139 359.272 333.136 362.651 333.133 366.031C333.135 367.314 333.137 368.596 333.139 369.917C333.136 371.095 333.133 372.273 333.13 373.486C333.129 374.529 333.128 375.572 333.127 376.647C333 379 333 379 332 380C331.898 381.727 331.865 383.458 331.858 385.187C331.848 386.851 331.848 386.851 331.837 388.547C331.833 389.758 331.829 390.968 331.824 392.215C331.801 394.764 331.777 397.313 331.752 399.861C331.716 403.89 331.686 407.919 331.674 411.948C331.659 415.829 331.618 419.709 331.574 423.59C331.576 424.782 331.578 425.974 331.58 427.202C331.421 438.156 328.772 446.187 321 454C320.485 454.495 319.969 454.99 319.438 455.5C317.767 457.143 317.767 457.143 316.063 460.063C313.087 464.3 310.539 465.247 305.453 465.261ZM310.404 447.642C314 447 314 447 317 447C319.021 445.23 319.021 445.23 321 443C321.692 442.399 322.384 441.797 323.097 441.177C325.408 438.533 325.502 437.378 325.506 433.915C325.517 432.882 325.528 431.85 325.54 430.786C325.532 429.653 325.523 428.52 325.515 427.353C325.522 426.149 325.529 424.944 325.536 423.703C325.551 420.358 325.548 417.014 325.538 413.669C325.531 410.062 325.547 406.455 325.56 402.849C325.581 395.782 325.581 388.716 325.573 381.649C325.567 375.907 325.568 370.164 325.574 364.422C325.575 363.605 325.576 362.788 325.577 361.947C325.579 360.287 325.581 358.628 325.583 356.969C325.599 341.404 325.591 325.838 325.574 310.273C325.559 296.027 325.574 281.782 325.603 267.537C325.632 252.915 325.643 238.294 325.633 223.673C325.632 222.019 325.631 220.366 325.63 218.712C325.63 217.899 325.629 217.085 325.629 216.247C325.627 210.511 325.637 204.775 325.651 199.039C325.669 192.049 325.669 185.059 325.646 178.069C325.635 174.502 325.632 170.935 325.65 167.368C325.67 163.503 325.651 159.639 325.628 155.774C325.64 154.643 325.652 153.513 325.664 152.348C325.632 146.14 325.632 146.14 322.615 140.849C320.172 139.122 317.958 137.804 315.188 136.688C313.806 136.131 312.424 135.574 311 135C317.93 131.04 317.93 131.04 325 127C324.34 126.34 323.68 125.68 323 125C321.672 125.884 321.672 125.884 320.317 126.785C319.067 127.546 317.815 128.305 316.563 129.063C315.703 129.647 315.703 129.647 314.826 130.244C309.959 133.094 305.716 133.087 300.226 132.614C291.62 131.992 283.068 131.837 274.442 131.832C272.917 131.829 271.393 131.825 269.868 131.822C266.703 131.816 263.537 131.814 260.372 131.815C257.168 131.815 253.963 131.808 250.759 131.794C246.07 131.774 241.381 131.767 236.692 131.77C235.565 131.77 235.565 131.77 234.415 131.77C225.955 131.782 217.672 132.054 209.285 133.285C203.914 134.068 200.016 134.266 195.442 130.977C194.925 130.531 194.408 130.085 193.875 129.625C193.289 129.187 192.702 128.748 192.098 128.297C190.698 127.241 189.343 126.127 188 125C187.34 125.66 186.68 126.32 186 127C191.884 132.471 191.884 132.471 199 135C199 135.66 199 136.32 199 137C197.701 137.093 197.701 137.093 196.375 137.188C192.256 138.179 189.437 139.522 187 143C186.095 146.94 186.195 150.822 186.245 154.85C186.236 156.064 186.228 157.278 186.219 158.529C186.201 161.897 186.21 165.263 186.231 168.631C186.246 172.264 186.227 175.896 186.213 179.529C186.19 186.644 186.199 193.758 186.22 200.873C186.236 206.654 186.241 212.435 186.236 218.217C186.235 219.45 186.235 219.45 186.234 220.709C186.233 222.38 186.232 224.05 186.23 225.721C186.218 241.391 186.242 257.06 186.279 272.729C186.31 286.18 186.312 299.63 186.293 313.081C186.271 328.695 186.265 344.31 186.286 359.924C186.288 361.589 186.29 363.253 186.292 364.917C186.293 365.736 186.294 366.555 186.295 367.399C186.302 373.175 186.297 378.951 186.288 384.727C186.278 391.763 186.285 398.8 186.316 405.836C186.331 409.427 186.338 413.019 186.323 416.61C186.308 420.499 186.331 424.388 186.359 428.277C186.348 429.418 186.338 430.558 186.327 431.734C186.25 437.771 186.25 437.771 189.43 442.63C190.278 443.082 191.126 443.534 192 444C192.873 444.815 192.873 444.815 193.763 445.646C208.294 454.44 235.448 450.456 251.996 450.391C256.382 450.374 260.767 450.384 265.152 450.402C268.594 450.413 272.037 450.409 275.479 450.401C277.094 450.4 278.709 450.402 280.324 450.409C290.596 450.444 300.304 449.544 310.404 447.642Z" fill="#E9E5D4"/>
<path d="M278.441 450.301C276.764 450.305 275.086 450.309 273.409 450.314C269.907 450.321 266.405 450.321 262.903 450.316C259.359 450.311 255.815 450.318 252.271 450.336C199.082 450.608 199.082 450.608 192 444C191.152 443.548 190.304 443.096 189.43 442.63C185.517 438.395 186.307 433.842 186.358 428.277C186.35 427.065 186.341 425.852 186.333 424.603C186.314 421.234 186.318 417.868 186.332 414.5C186.341 410.868 186.322 407.237 186.306 403.606C186.28 396.491 186.281 389.377 186.292 382.262C186.3 376.481 186.3 370.699 186.292 364.917C186.291 364.095 186.29 363.273 186.289 362.425C186.287 360.755 186.284 359.085 186.282 357.414C186.263 341.743 186.275 326.071 186.297 310.4C186.315 296.95 186.304 283.5 186.273 270.05C186.236 254.437 186.219 238.824 186.232 223.211C186.234 221.546 186.235 219.881 186.236 218.217C186.237 216.988 186.237 216.988 186.238 215.735C186.241 209.96 186.23 204.185 186.213 198.41C186.193 191.372 186.193 184.335 186.221 177.297C186.235 173.705 186.239 170.114 186.218 166.523C186.194 162.631 186.217 158.741 186.245 154.85C186.224 153.142 186.224 153.142 186.202 151.4C186.309 143.986 186.309 143.986 188.267 141.191C191.555 138.298 194.69 137.308 199 137C199 136.34 199 135.68 199 135C198.01 134.691 198.01 134.691 197 134.375C192.884 132.488 189.541 129.794 186 127C186.66 126.34 187.32 125.68 188 125C188.802 125.673 189.604 126.346 190.43 127.039C191.576 127.904 192.725 128.765 193.875 129.625C194.392 130.071 194.909 130.517 195.441 130.977C200.71 134.765 205.504 133.84 211.549 132.953C219.925 131.815 228.256 131.769 236.691 131.77C237.826 131.769 237.826 131.769 238.983 131.768C243.708 131.768 248.433 131.784 253.158 131.804C256.36 131.815 259.562 131.815 262.765 131.814C265.904 131.815 269.044 131.82 272.183 131.827C273.657 131.83 275.13 131.832 276.604 131.833C285.217 131.842 293.759 132.056 302.345 132.798C308.202 133.236 312.154 132.146 317.063 129.062C317.749 128.676 318.435 128.29 319.143 127.893C320.782 126.964 322.395 125.987 324 125C324 125.99 324 126.98 324 128C319.71 130.31 315.42 132.62 311 135C312.939 135.928 314.878 136.856 316.875 137.812C322.75 140.625 322.75 140.625 325 144C325.254 146.258 325.254 146.258 325.26 148.962C325.267 149.993 325.274 151.023 325.282 152.085C325.279 153.221 325.277 154.356 325.274 155.526C325.282 157.332 325.282 157.332 325.29 159.174C325.303 162.521 325.306 165.868 325.305 169.215C325.307 172.823 325.32 176.43 325.332 180.037C325.355 187.928 325.362 195.818 325.368 203.709C325.371 208.634 325.377 213.559 325.385 218.484C325.404 232.115 325.42 245.746 325.423 259.377C325.424 260.25 325.424 261.122 325.424 262.021C325.424 263.79 325.425 265.559 325.425 267.328C325.425 268.206 325.425 269.084 325.426 269.989C325.426 270.868 325.426 271.748 325.426 272.654C325.43 286.906 325.457 301.157 325.494 315.409C325.532 330.035 325.552 344.661 325.552 359.287C325.552 367.501 325.561 375.716 325.59 383.93C325.614 390.924 325.622 397.917 325.607 404.911C325.599 408.48 325.6 412.049 325.623 415.619C325.647 419.486 325.633 423.352 325.615 427.22C325.628 428.351 325.641 429.482 325.655 430.648C325.572 438.271 325.572 438.271 322.544 442.127C321.704 442.745 320.865 443.363 320 444C319.567 444.578 319.134 445.155 318.688 445.75C316.409 447.438 314.226 447.51 311.457 447.753C308.706 448.029 306.03 448.522 303.308 449.009C295.009 450.296 286.818 450.309 278.441 450.301ZM306.523 431.281C310.222 426.35 312.479 420.833 314.688 415.125C314.973 414.414 315.259 413.703 315.553 412.97C320.931 398.302 321.448 382.406 321.388 366.963C321.392 365.147 321.398 363.331 321.404 361.515C321.418 356.645 321.413 351.775 321.403 346.906C321.395 341.772 321.403 336.638 321.407 331.504C321.413 322.89 321.406 314.275 321.391 305.66C321.375 295.746 321.38 285.832 321.397 275.918C321.41 267.356 321.412 258.793 321.404 250.23C321.4 245.138 321.399 240.046 321.409 234.954C321.418 230.164 321.411 225.375 321.394 220.585C321.39 218.843 321.391 217.101 321.398 215.359C321.48 191.804 317.874 164.41 301.125 146.375C292.302 138.75 284.295 137.245 272.813 137.336C271.461 137.333 270.109 137.328 268.757 137.321C265.94 137.314 263.123 137.325 260.306 137.348C256.721 137.377 253.139 137.36 249.555 137.33C246.768 137.312 243.982 137.318 241.195 137.331C239.24 137.336 237.284 137.321 235.329 137.305C225.262 137.437 218.27 139.802 210.813 146.625C204.36 153.623 200.007 161.23 196.75 170.125C196.516 170.75 196.282 171.375 196.041 172.019C191.188 186.186 190.558 200.762 190.612 215.576C190.608 217.474 190.602 219.372 190.596 221.27C190.582 226.371 190.588 231.472 190.597 236.573C190.605 241.943 190.598 247.312 190.593 252.682C190.587 261.693 190.595 270.705 190.609 279.717C190.625 290.098 190.62 300.478 190.603 310.859C190.59 319.814 190.588 328.769 190.596 337.725C190.6 343.055 190.601 348.385 190.591 353.715C190.582 358.728 190.589 363.74 190.606 368.753C190.61 370.58 190.609 372.407 190.602 374.233C190.528 396.424 194.025 419.309 209.963 436.119C218.013 443.552 227.181 443.735 237.57 443.629C239.061 443.63 240.553 443.632 242.044 443.636C245.152 443.639 248.26 443.625 251.368 443.597C255.333 443.563 259.297 443.569 263.263 443.588C266.336 443.598 269.409 443.589 272.482 443.574C273.944 443.569 275.405 443.569 276.867 443.576C289.559 443.61 297.952 440.951 306.523 431.281Z" fill="#E2DDCA"/>
<path d="M294.493 111.136C293.703 111.134 292.913 111.131 292.1 111.129C290.858 111.132 290.858 111.132 289.592 111.135C286.843 111.139 284.093 111.136 281.344 111.133C279.442 111.134 277.54 111.134 275.638 111.136C271.647 111.137 267.655 111.135 263.664 111.13C258.535 111.125 253.407 111.128 248.278 111.134C244.349 111.138 240.42 111.136 236.492 111.134C234.6 111.133 232.708 111.134 230.817 111.136C228.178 111.139 225.539 111.135 222.9 111.129C221.716 111.132 221.716 111.132 220.508 111.136C215.114 111.114 215.114 111.114 214 110C213.083 100.971 215.058 92.2237 216.875 83.4375C217.148 82.079 217.42 80.7203 217.692 79.3613C218.213 76.7525 218.747 74.1474 219.288 71.5425C219.731 69.3405 220.141 67.1315 220.501 64.9146C220.648 64.0262 220.794 63.1379 220.945 62.2227C221.056 61.4687 221.167 60.7146 221.282 59.9378C222.253 57.3185 223.664 56.4569 226 55C228.227 54.086 228.227 54.086 230.625 53.375C231.401 53.1353 232.177 52.8955 232.977 52.6485C249.043 49.2028 271.348 48.0992 286.34 55.6914C289 58 289 58 289.848 61.0742C289.919 62.2666 289.99 63.459 290.063 64.6875C291.066 76.0437 294.559 86.5882 298.813 97.125C300.646 101.711 301.67 105.09 301 110C299.225 111.775 296.856 111.126 294.493 111.136Z" fill="#FDF6DA"/>
<path d="M193.625 129.937C192.565 129.204 191.506 128.471 190.414 127.715C189.617 127.149 188.821 126.583 188 126C193.717 119.677 202.18 117.695 210.3 116.369C211.086 116.24 211.871 116.111 212.68 115.979C221.007 114.711 229.231 114.563 237.637 114.602C239.257 114.6 240.876 114.597 242.496 114.593C245.857 114.588 249.217 114.595 252.577 114.609C256.84 114.626 261.102 114.616 265.364 114.598C268.698 114.587 272.031 114.591 275.364 114.599C276.934 114.6 278.504 114.598 280.075 114.591C294.917 114.539 309.123 115.775 322 124C322.33 124.66 322.66 125.32 323 126C320.878 127.412 318.742 128.745 316.562 130.062C315.99 130.452 315.417 130.842 314.826 131.244C309.962 134.092 305.722 134.087 300.235 133.614C291.579 132.988 282.977 132.836 274.301 132.832C272.767 132.829 271.233 132.825 269.699 132.822C266.517 132.816 263.334 132.814 260.152 132.815C256.115 132.815 252.078 132.801 248.041 132.784C244.884 132.773 241.728 132.771 238.571 132.771C237.084 132.77 235.597 132.766 234.11 132.758C225.616 132.717 217.455 133.158 209.075 134.668C202.639 135.362 198.842 133.589 193.625 129.937Z" fill="#78D6FE"/>
<path d="M193.625 129.937C192.565 129.204 191.506 128.471 190.414 127.715C189.617 127.149 188.821 126.583 188 126C195.719 117.462 209.076 115.842 220 115C228.334 114.693 236.665 114.818 245 115C244.67 120.61 244.34 126.22 244 132C241.645 132.073 241.645 132.073 239.242 132.148C223.95 132.66 223.95 132.66 208.805 134.695C202.483 135.382 198.754 133.528 193.625 129.937Z" fill="#71C9EE"/>
<path d="M327 420C326.34 420 325.68 420 325 420C324.999 419.418 324.999 418.835 324.998 418.235C324.962 383.731 324.906 349.226 324.822 314.722C324.812 310.581 324.802 306.441 324.792 302.3C324.79 301.475 324.788 300.651 324.786 299.802C324.755 286.445 324.738 273.087 324.727 259.73C324.714 246.03 324.687 232.33 324.645 218.629C324.62 210.172 324.607 201.715 324.608 193.257C324.608 187.462 324.594 181.667 324.568 175.871C324.553 172.525 324.547 169.179 324.554 165.832C324.561 162.208 324.543 158.584 324.519 154.959C324.53 153.366 324.53 153.366 324.542 151.74C324.569 146.198 324.569 146.198 322.129 141.394C319.732 139.825 317.438 138.74 314.75 137.75C313.412 137.247 313.412 137.247 312.047 136.734C311.371 136.492 310.696 136.25 310 136C312.495 133.184 315.265 131.59 318.562 129.812C319.533 129.283 320.504 128.753 321.504 128.207C324 127 324 127 326 127C326.982 129.945 327.124 131.83 327.123 134.898C327.125 135.914 327.127 136.93 327.129 137.977C327.126 139.097 327.123 140.217 327.12 141.37C327.121 143.15 327.121 143.15 327.123 144.967C327.124 148.266 327.121 151.566 327.116 154.866C327.112 158.422 327.113 161.978 327.114 165.534C327.114 171.698 327.111 177.861 327.106 184.024C327.097 192.935 327.095 201.846 327.094 210.757C327.091 225.214 327.085 239.671 327.075 254.128C327.066 268.173 327.059 282.218 327.055 296.263C327.054 297.129 327.054 297.994 327.054 298.886C327.053 303.228 327.051 307.569 327.05 311.911C327.04 347.94 327.022 383.97 327 420Z" fill="#7CCADE"/>
<path d="M187 424C186.34 424 185.68 424 185 424C184.954 386.453 184.919 348.906 184.898 311.358C184.895 306.93 184.893 302.501 184.89 298.072C184.89 297.191 184.889 296.309 184.889 295.4C184.88 281.108 184.864 266.815 184.846 252.522C184.827 237.865 184.816 223.209 184.812 208.553C184.809 199.503 184.8 190.453 184.784 181.403C184.774 175.204 184.77 169.006 184.773 162.807C184.774 159.226 184.772 155.645 184.762 152.064C184.75 148.189 184.754 144.315 184.759 140.44C184.754 139.298 184.748 138.156 184.742 136.979C184.746 135.948 184.75 134.916 184.754 133.853C184.753 132.958 184.752 132.062 184.752 131.14C185 129 185 129 187 127C187.699 127.494 188.397 127.987 189.117 128.496C190.027 129.137 190.937 129.777 191.875 130.438C192.78 131.076 193.685 131.714 194.617 132.371C196.877 133.995 196.877 133.995 199 135C199 135.66 199 136.32 199 137C198.374 137.266 197.747 137.531 197.102 137.805C195.876 138.334 195.876 138.334 194.625 138.875C193.813 139.223 193.001 139.571 192.164 139.93C189.862 140.924 189.862 140.924 188 143C187.693 145.133 187.693 145.133 187.738 147.635C187.731 148.617 187.723 149.6 187.716 150.613C187.718 151.7 187.72 152.788 187.722 153.908C187.716 155.058 187.71 156.207 187.704 157.391C187.69 160.59 187.685 163.789 187.683 166.989C187.68 170.435 187.664 173.882 187.651 177.328C187.628 183.303 187.613 189.277 187.603 195.252C187.589 203.89 187.563 212.528 187.535 221.166C187.49 235.18 187.453 249.193 187.422 263.207C187.392 276.823 187.357 290.438 187.317 304.054C187.315 304.893 187.312 305.731 187.31 306.596C187.298 310.804 187.285 315.012 187.273 319.22C187.169 354.146 187.08 389.073 187 424Z" fill="#71BDCC"/>
<path d="M305.573 465.14C304.667 465.146 303.762 465.152 302.828 465.158C301.342 465.159 301.342 465.159 299.825 465.161C298.779 465.166 297.733 465.171 296.656 465.176C293.19 465.191 289.724 465.198 286.258 465.203C283.853 465.209 281.448 465.215 279.042 465.22C273.997 465.231 268.951 465.237 263.906 465.24C257.437 465.246 250.968 465.27 244.5 465.298C239.531 465.317 234.562 465.322 229.593 465.324C227.208 465.327 224.823 465.335 222.438 465.348C219.103 465.365 215.769 465.363 212.434 465.356C211.447 465.366 210.46 465.375 209.443 465.384C204.499 465.354 200.966 465.306 197 462C195.125 459.438 195.125 459.438 194 457C194.33 456.34 194.66 455.68 195 455C195.601 455.283 196.202 455.566 196.821 455.857C203.217 458.668 208.487 459.579 215.432 459.518C216.422 459.525 217.412 459.532 218.432 459.539C221.674 459.556 224.914 459.545 228.156 459.531C230.427 459.534 232.698 459.538 234.969 459.543C239.717 459.549 244.464 459.54 249.211 459.522C255.277 459.499 261.342 459.512 267.408 459.536C272.094 459.55 276.78 459.546 281.466 459.535C283.702 459.533 285.937 459.536 288.173 459.545C291.305 459.555 294.436 459.54 297.568 459.518C298.936 459.53 298.936 459.53 300.33 459.542C306.913 459.456 312.061 457.795 318 455C316.075 461.663 316.075 461.663 313 464C310.192 464.936 308.478 465.129 305.573 465.14Z" fill="#AFC0CA"/>
<path d="M290 59C289.154 58.4019 288.309 57.8037 287.438 57.1875C272.312 48.7542 248.314 50.0411 232 54C229.492 54.936 227.139 55.9537 224.77 57.1953C223 58 223 58 220 58C219.175 57.175 218.35 56.35 217.5 55.5C213.761 52.1315 210.007 52.5997 205.195 52.8242C204.471 52.8822 203.746 52.9402 203 53C205.71 51.5259 208.046 50.6621 211.09 50.1836C211.876 50.0592 212.661 49.9348 213.471 49.8066C214.285 49.6848 215.099 49.563 215.938 49.4375C216.717 49.3118 217.496 49.1861 218.299 49.0566C230.706 47.1409 243.156 46.7678 255.688 46.75C256.442 46.7477 257.196 46.7453 257.973 46.7429C272.145 46.7265 285.974 47.8907 300 50C299.715 51.8984 299.715 51.8984 299 54C295.562 55.625 295.562 55.625 292 57C291.34 57.66 290.68 58.32 290 59Z" fill="#B0C0C7"/>
<path d="M279.395 453.301C277.584 453.305 275.773 453.309 273.963 453.314C270.178 453.321 266.393 453.321 262.608 453.316C257.798 453.31 252.989 453.327 248.179 453.35C244.441 453.365 240.703 453.366 236.965 453.363C235.194 453.363 233.423 453.368 231.652 453.378C219.721 453.438 208.424 452.808 197 449C197 448.34 197 447.68 197 447C199.188 447.143 201.375 447.289 203.562 447.438C204.781 447.519 205.999 447.6 207.254 447.684C209.595 447.881 211.933 448.146 214.255 448.51C218.102 449.013 221.79 449.141 225.669 449.161C226.402 449.166 227.135 449.171 227.89 449.176C230.298 449.191 232.705 449.198 235.113 449.203C235.945 449.206 236.777 449.209 237.633 449.212C242.044 449.227 246.454 449.236 250.865 449.24C255.368 449.246 259.871 449.27 264.375 449.298C267.881 449.317 271.388 449.322 274.895 449.324C276.552 449.327 278.209 449.334 279.866 449.348C289.607 449.42 298.805 448.841 308.37 446.875C310.233 446.506 312.116 446.243 314 446C314.66 446.66 315.32 447.32 316 448C303.87 452.942 292.338 453.312 279.395 453.301Z" fill="#66BDDD"/>
<path d="M273 132C267.72 132 262.44 132 257 132C258.287 129.539 259.58 127.081 260.875 124.625C261.24 123.926 261.605 123.228 261.98 122.508C264.773 117.227 264.773 117.227 267 115C268.98 115 270.96 115 273 115C273 120.61 273 126.22 273 132Z" fill="#71CAF0"/>
<path d="M291 133C291 132.67 291 132.34 291 132C292.578 131.753 292.578 131.753 294.188 131.5C299.226 130.288 303.322 127.543 307.606 124.744C311.824 122 311.824 122 314 122C314.33 121.34 314.66 120.68 315 120C317.64 121.65 320.28 123.3 323 125C312.7 134.27 304.106 134.536 291 133Z" fill="#74CAEA"/>
<path d="M183 135C182.34 135 181.68 135 181 135C180.931 127.342 180.877 119.684 180.845 112.026C180.829 108.47 180.808 104.914 180.774 101.358C180.735 97.2728 180.72 93.1874 180.707 89.1016C180.692 87.8213 180.676 86.5411 180.66 85.2221C180.66 84.041 180.66 82.8599 180.659 81.6431C180.653 80.5994 180.646 79.5557 180.639 78.4804C180.758 77.6619 180.877 76.8433 181 76C181.99 75.34 182.98 74.68 184 74C184.125 94.364 183.913 114.652 183 135Z" fill="#7D6B4F"/>
<path d="M331 135C330.67 135 330.34 135 330 135C327.612 92.7727 327.612 92.7727 328 75C328.99 75.33 329.98 75.66 331 76C331 95.47 331 114.94 331 135Z" fill="#756454"/>
<path d="M196 448C191.684 446.604 187.849 444.59 185 441C184.286 438.186 184.424 435.567 184.625 432.688C184.652 431.947 184.679 431.206 184.707 430.443C184.777 428.628 184.885 426.813 185 425C185.66 425 186.32 425 187 425C187.004 426.555 187.004 426.555 187.008 428.141C187.045 429.51 187.084 430.88 187.125 432.25C187.122 432.932 187.12 433.614 187.117 434.316C187.148 436.626 187.148 436.626 188 440C190.774 442.447 190.774 442.447 194 444C194.99 444.66 195.98 445.32 197 446C196.67 446.66 196.34 447.32 196 448Z" fill="#77BDC2"/>
<path d="M321 446C318.938 445.562 318.938 445.562 317 445C317.969 444.381 318.939 443.762 319.938 443.125C323.028 441.343 323.028 441.343 324 439C324.15 437.627 324.248 436.247 324.316 434.867C324.358 434.062 324.4 433.256 324.443 432.426C324.502 431.163 324.502 431.163 324.563 429.875C324.606 429.026 324.649 428.176 324.693 427.301C324.8 425.201 324.9 423.1 325 421C325.66 421 326.32 421 327 421C327.135 424.064 327.234 427.122 327.313 430.188C327.354 431.052 327.396 431.916 327.439 432.807C327.528 437.433 327.541 439.328 324.543 443.051C323.704 443.694 322.865 444.337 322 445C321.67 445.33 321.34 445.66 321 446Z" fill="#7EC8D5"/>
<path d="M286 125C286.156 124.446 286.312 123.891 286.473 123.32C286.667 122.596 286.862 121.871 287.062 121.125C287.26 120.406 287.457 119.686 287.66 118.945C288.211 116.927 288.211 116.927 287 115C292.152 114.91 296.919 115.153 302 116C302 116.33 302 116.66 302 117C300.989 117.206 299.979 117.412 298.938 117.625C294.915 118.737 292.457 120.911 289.48 123.758C288 125 288 125 286 125Z" fill="#7BC9DD"/>
<path d="M206 135C200.877 134.515 197.815 132.871 193.625 129.938C192.565 129.204 191.506 128.471 190.414 127.715C189.617 127.149 188.821 126.583 188 126C188.99 125.01 189.98 124.02 191 123C191.496 123.375 191.993 123.75 192.504 124.137C195.969 126.747 199.445 129.326 203 131.812C203.99 132.534 204.98 133.256 206 134C206 134.33 206 134.66 206 135Z" fill="#67BDDD"/>
<path d="M322 58C319.207 57.4921 316.583 56.8667 313.875 56C309.031 54.5607 304.019 54.3449 299 54C299.33 53.01 299.66 52.02 300 51C307.073 51.5894 314.331 52.4665 321 55C321.33 55.99 321.66 56.98 322 58Z" fill="#E3E0C2"/>
<path d="M328 83C327.67 83 327.34 83 327 83C326.963 82.01 326.925 81.02 326.887 80C326.551 72.8229 325.939 66.6443 323 60C323 59.01 323 58.02 323 57C327.731 60.2751 327.731 60.2751 328.812 63.1875C329.261 69.9205 328.971 76.3236 328 83Z" fill="#B2C0C0"/>
<path d="M310 135C312.289 133.661 314.581 132.329 316.875 131C317.526 130.618 318.177 130.237 318.848 129.844C323.773 127 323.773 127 326 127C326 128.32 326 129.64 326 131C324.09 131.868 322.171 132.719 320.25 133.563C319.183 134.038 318.115 134.514 317.016 135.004C314.016 135.995 312.866 136.162 310 135Z" fill="#79C9E1"/>
<path d="M185 81C184.67 81 184.34 81 184 81C182.439 65.795 182.439 65.795 185 60C185.66 59.67 186.32 59.34 187 59C186.407 66.3416 185.762 73.6739 185 81Z" fill="#B3BFBD"/>
<path d="M199 135C193.911 133.41 190.125 130.255 186 127C186.66 126.34 187.32 125.68 188 125C191.96 127.64 195.92 130.28 200 133C199.67 133.66 199.34 134.32 199 135Z" fill="#E0DED3"/>
<path d="M310 133C312.929 130.666 315.886 128.95 319.25 127.312C320.588 126.657 320.588 126.657 321.953 125.988C322.629 125.662 323.304 125.336 324 125C324 125.99 324 126.98 324 128C322.236 129.033 320.464 130.051 318.688 131.062C317.701 131.631 316.715 132.199 315.699 132.785C313 134 313 134 310 133Z" fill="#D1CDB7"/>
<path d="M322 58C317.916 57.2575 313.981 56.1708 310 55C310 54.67 310 54.34 310 54C318.571 53.7143 318.571 53.7143 322 56C322 56.66 322 57.32 322 58Z" fill="#FFFDE8"/>
<path d="M326 146C324.68 144.35 323.36 142.7 322 141C322.33 140.34 322.66 139.68 323 139C324.32 139 325.64 139 327 139C327.043 141 327.041 143 327 145C326.67 145.33 326.34 145.66 326 146Z" fill="#7AC9DF"/>
</svg>
