<?xml version="1.0" encoding="UTF-8"?>
<svg version="1.1" xmlns="http://www.w3.org/2000/svg" width="64" height="64">
<path d="M0 0 C3.17307283 0.4442302 5.02842916 0.07328042 8.125 -0.5625 C14.36027294 -1.03445661 19.868726 -1.35190684 25.125 2.4375 C29.26063926 6.56317386 32.51495102 10.57026981 33.75 16.375 C33.04308834 19.83886715 32.7236111 20.15621346 29.9375 22.0625 C16.17434632 29.45869911 -0.07750736 31.03678569 -15.125 26.75 C-25.24010432 23.03025196 -25.24010432 23.03025196 -28.875 19.4375 C-29.9980527 15.98812385 -29.22134245 14.22362261 -27.7890625 10.97265625 C-25.11051407 5.9337295 -22.52818624 2.17565358 -17.1484375 -0.01953125 C-11.44153391 -1.38252025 -5.74815104 -0.83440902 0 0 Z " fill="#BDC9CD" transform="translate(29.875,35.5625)"/>
<path d="M0 0 C4.47870656 2.15937638 7.18198188 4.92952939 10 9 C11.72237197 14.1671159 11.65561622 19.10599758 9.875 24.25 C6.35915036 29.40657948 2.16317768 32.76736446 -4 34 C-9.71101207 34.09174317 -13.52014145 32.66533881 -18 29 C-22.33456803 24.19683002 -23.31321307 20.58774667 -23.2109375 14.27734375 C-22.75631992 9.36915767 -20.56756125 6.30278484 -16.9375 3.1875 C-11.51636711 -0.84951386 -6.630144 -0.62483032 0 0 Z " fill="#BCC9CC" transform="translate(38,0)"/>
</svg>
