<svg width="512" height="512" viewBox="0 0 512 512" fill="none" xmlns="http://www.w3.org/2000/svg">
<g clip-path="url(#clip0_80_7)">
<path d="M0 0C168.96 0 337.92 0 512 0C512 168.96 512 337.92 512 512C343.04 512 174.08 512 0 512C0 343.04 0 174.08 0 0Z" fill="#FEFEFE"/>
<path d="M296.107 76.8C297.683 77.5237 299.26 78.2471 300.837 78.97C339.642 97.0412 339.642 97.0412 346.56 111.19C348.286 116.514 347.886 122.509 346.4 127.84C343.026 133.39 338.553 139.213 332.13 141.293C326.16 142.43 319.528 142.689 314.183 139.533C311.2 137.463 308.276 135.311 305.342 133.173C290.809 122.736 274.09 115.57 256.853 110.933C256.015 110.699 255.177 110.465 254.313 110.223C217.518 100.768 177.834 107.785 145.067 126.293C134.201 132.83 124.463 140.696 115.2 149.333C114.569 149.919 113.937 150.504 113.287 151.107C96.7652 166.981 85.2414 187.878 77.8133 209.387C77.5864 210.028 77.3595 210.67 77.1258 211.331C72.4492 225.606 71.0554 240.105 71.1999 255.04C71.2058 256.269 71.2058 256.269 71.2118 257.523C71.2937 270.002 72.1319 281.594 75.9466 293.547C76.1981 294.39 76.4496 295.233 76.7087 296.101C80.013 307.162 83.9232 317.621 89.5999 327.68C89.8955 328.215 90.1912 328.749 90.4957 329.3C109.144 362.802 141.305 388.265 178.201 398.835C178.812 399.009 179.423 399.182 180.053 399.36C180.711 399.556 181.368 399.752 182.046 399.955C194.046 403.415 205.836 404.038 218.24 404.053C218.969 404.057 219.698 404.061 220.448 404.065C234.691 404.095 248.733 402.57 262.453 398.613C263.244 398.39 264.034 398.168 264.849 397.938C270.426 396.321 275.593 394.369 280.747 391.68C281.812 391.163 282.879 390.649 283.947 390.137C294.68 384.952 304.6 378.783 314.3 371.87C319.014 368.73 323.902 369.031 329.387 369.493C335.976 370.973 340.659 374.411 344.747 379.733C348.109 385.066 348.077 391.564 347.307 397.653C342.662 412.326 321.672 421.741 308.907 428.373C301.821 431.953 294.667 435.323 287.143 437.883C285.754 438.359 284.377 438.871 283.017 439.423C275.395 442.469 267.397 444.107 259.383 445.768C257.746 446.108 256.11 446.457 254.477 446.815C233.911 451.273 211.059 451.544 190.293 448C189.529 447.871 188.764 447.743 187.977 447.61C151.694 441.273 118.895 425.337 91.3066 401.067C90.3512 400.253 90.3512 400.253 89.3766 399.423C81.8026 392.95 75.318 385.813 69.1199 378.027C68.5589 377.352 67.9979 376.678 67.4199 375.983C55.2449 361.241 46.1554 344.562 39.1039 326.853C38.4654 325.281 37.7786 323.729 37.0866 322.18C19.6606 279.78 21.4521 227.043 38.302 184.881C43.759 171.871 49.9921 159.243 58.0266 147.627C58.5787 146.826 58.5787 146.826 59.142 146.01C70.3263 129.971 83.4607 115.203 98.9866 103.253C99.7412 102.655 100.496 102.057 101.273 101.44C155.022 59.7514 233.658 47.2213 296.107 76.8Z" fill="#017CFE"/>
<path d="M290.133 150.187C294.494 154.212 297.472 157.995 298.1 164.04C298.19 172.111 296.953 177.002 292.587 183.68C287.089 188.939 279.876 191.666 272.293 191.61C267.002 190.681 262.408 187.735 257.716 185.221C255.155 183.876 252.562 182.672 249.92 181.493C248.649 180.917 248.649 180.917 247.353 180.33C238.465 176.985 229.255 176.186 219.84 176.267C218.756 176.274 217.672 176.282 216.556 176.29C199.091 176.612 183.321 182.514 169.813 193.707C169.078 194.313 168.344 194.919 167.587 195.543C154.024 207.236 144.337 223.649 141.653 241.493C139.864 267.072 144.386 289.181 161.433 308.909C166.73 314.826 172.444 319.248 179.2 323.413C180.183 324.04 180.183 324.04 181.187 324.68C198.056 334.802 219.455 337.275 238.467 332.833C251.48 329.021 263.746 323.078 273.92 314.027C274.505 313.512 275.09 312.997 275.693 312.467C284.469 304.243 291.604 292.672 295.76 281.431C295.986 280.822 296.212 280.213 296.445 279.585C296.615 279.124 296.785 278.662 296.96 278.187C295.331 278.198 295.331 278.198 293.669 278.21C283.424 278.279 273.179 278.33 262.934 278.364C257.667 278.381 252.4 278.405 247.134 278.444C242.049 278.481 236.964 278.502 231.879 278.511C229.942 278.517 228.004 278.529 226.066 278.548C223.347 278.572 220.629 278.576 217.91 278.574C217.113 278.586 216.315 278.599 215.494 278.611C209.313 278.573 204.853 277.05 200.17 272.97C194.321 266.152 192.348 261.133 192.55 252.06C192.958 248.176 194.049 245.518 196.267 242.347C196.724 241.607 197.182 240.868 197.653 240.107C202.561 235.199 208.501 232.018 215.45 231.97C216.423 231.961 217.395 231.952 218.397 231.944C219.465 231.939 220.533 231.934 221.633 231.929C222.757 231.92 223.881 231.912 225.04 231.903C228.772 231.876 232.504 231.859 236.237 231.843C236.873 231.841 237.509 231.838 238.164 231.835C244.17 231.809 250.175 231.786 256.181 231.771C263.846 231.753 271.511 231.717 279.176 231.657C284.573 231.617 289.971 231.596 295.369 231.59C298.588 231.586 301.806 231.573 305.025 231.539C308.06 231.508 311.094 231.501 314.129 231.512C315.758 231.512 317.387 231.487 319.015 231.46C327.019 231.527 333.815 233.515 339.859 238.979C345.124 244.518 346.938 250.062 346.88 257.547C346.875 258.635 346.875 258.635 346.871 259.745C346.214 286.354 336.286 313.274 319.147 333.653C318.404 334.573 317.662 335.493 316.92 336.413C296.408 361.488 266.057 377.268 233.913 381.073C221.98 382.217 209.739 382.125 197.973 379.733C197.431 379.628 196.889 379.522 196.331 379.414C176.602 375.504 158.283 367.57 142.507 354.987C141.638 354.3 140.769 353.614 139.873 352.907C134.823 348.851 130.375 344.648 126.293 339.627C125.31 338.498 125.31 338.498 124.307 337.347C101.158 310.506 92.042 277.358 93.8666 242.347C94.4936 236.256 95.7908 230.357 97.2799 224.427C97.4215 223.816 97.5632 223.205 97.7091 222.575C102.855 200.57 114.931 181.53 130.56 165.547C131.125 164.928 131.691 164.31 132.273 163.673C171.057 122.203 244.867 116.692 290.133 150.187Z" fill="#012DB8"/>
<path d="M449.707 126.293C454.442 129.633 457.206 133.315 459.787 138.453C460.142 139.144 460.497 139.836 460.862 140.548C473.702 166.307 480.843 194.329 484.693 222.72C484.796 223.472 484.898 224.224 485.004 224.999C491.168 272.788 482.58 321.544 462.987 365.333C462.672 366.052 462.356 366.77 462.032 367.51C458.323 375.802 454.319 383.527 445.6 387.307C439.13 389.389 433.097 388.743 426.943 385.98C421.884 383.106 418.256 378.95 416.203 373.488C413.76 364.614 416.187 357.413 420.16 349.493C428.846 331.03 435.022 312.028 438.211 291.825C438.593 289.411 439.011 287.005 439.433 284.597C445.97 245.245 438.69 203.575 422.88 167.307C422.624 166.715 422.368 166.124 422.104 165.515C420.967 162.91 419.803 160.355 418.507 157.823C415.072 151.081 414.197 144.51 416.48 137.173C419.125 131.241 423.446 126.99 429.317 124.323C436.559 121.68 443.043 122.534 449.707 126.293Z" fill="#52C1FF"/>
<path d="M389.337 165.11C399.028 172.768 402.535 185.771 406.187 197.12C406.502 198.092 406.818 199.065 407.143 200.067C417.059 232.63 417.115 267.353 409.6 300.373C409.457 301.011 409.313 301.649 409.166 302.305C407.572 309.311 405.621 315.948 402.773 322.56C402.404 323.616 402.034 324.672 401.653 325.76C398.203 334.868 394.572 343.241 385.793 348.227C380.458 350.622 374.474 350.898 368.913 349.147C362.62 346.316 357.887 341.913 355.04 335.573C352.522 327.092 354.388 319.61 357.813 311.733C358.505 310.077 359.195 308.421 359.883 306.763C360.382 305.569 360.382 305.569 360.891 304.351C373.721 272.756 372.204 232.393 359.11 201.15C358.797 200.41 358.484 199.669 358.161 198.906C354.859 191.087 352.16 184.518 354.87 176.043C357.424 170.172 361.344 165.771 367.103 162.907C374.934 159.955 382.352 160.498 389.337 165.11Z" fill="#52C1FF"/>
</g>
<defs>
<clipPath id="clip0_80_7">
<rect width="512" height="512" rx="100" fill="white"/>
</clipPath>
</defs>
</svg>
