<?xml version="1.0" encoding="UTF-8"?>
<svg version="1.1" xmlns="http://www.w3.org/2000/svg" width="512" height="512">
<path d="M0 0 C2.45767437 2.17711793 4.86288234 4.39855042 7.25390625 6.6484375 C7.89328125 7.22335938 8.53265625 7.79828125 9.19140625 8.390625 C20.93538398 19.40060412 30.10162749 33.31534221 37.25390625 47.6484375 C37.57053223 48.28040039 37.8871582 48.91236328 38.21337891 49.56347656 C52.32946936 78.32639299 58.25028144 112.57005047 49.25390625 143.6484375 C49.05555176 144.34936523 48.85719727 145.05029297 48.65283203 145.77246094 C39.28638906 178.09674862 22.09963008 208.70964425 5.25390625 237.6484375 C4.24918302 239.38596231 3.24446468 241.12348996 2.23991394 242.8611145 C-6.52006891 257.99837909 -15.55005787 272.93751943 -24.89892578 287.72021484 C-27.42047277 291.71749671 -29.91892657 295.72901025 -32.41821289 299.74023438 C-39.02474551 310.34072014 -45.70238147 320.89413124 -52.41796875 331.42578125 C-57.55509077 339.48253057 -62.65817422 347.56054358 -67.74609375 355.6484375 C-68.62998779 357.05246826 -68.62998779 357.05246826 -69.53173828 358.48486328 C-77.6238355 371.34916892 -85.59849237 384.27296683 -93.36767578 397.33496094 C-95.81688221 401.44560212 -98.28211725 405.54663816 -100.74609375 409.6484375 C-105.08109242 408.20343794 -105.99492828 404.93319959 -107.99609375 401.0859375 C-112.07958505 393.48843973 -116.45891221 386.13194354 -121.05859375 378.8359375 C-121.69869385 377.82047852 -122.33879395 376.80501953 -122.99829102 375.75878906 C-124.28884623 373.71374792 -125.58010083 371.66914796 -126.87207031 369.625 C-129.7547267 365.0463983 -132.593902 360.44126071 -135.43359375 355.8359375 C-139.46215003 349.31415182 -143.52074858 342.81282879 -147.62109375 336.3359375 C-164.70965638 309.34059266 -181.63405753 282.24016641 -197.74609375 254.6484375 C-198.43880371 253.46556152 -198.43880371 253.46556152 -199.14550781 252.25878906 C-266.88259035 136.50677958 -266.88259035 136.50677958 -251.93359375 76.8984375 C-240.0472103 35.58546431 -213.47229215 1.67030065 -175.86743164 -19.32348633 C-119.15420248 -49.89012431 -48.67393779 -41.68095384 0 0 Z M-150.33203125 63.1484375 C-160.3390493 73.51169244 -167.82122593 86.17538069 -169.74609375 100.6484375 C-169.87886719 101.62039062 -170.01164062 102.59234375 -170.1484375 103.59375 C-172.20292227 122.75355174 -166.51900922 140.18279195 -154.71875 155.234375 C-142.11941771 170.04371676 -125.8353292 178.6477952 -106.55859375 180.3984375 C-87.03536887 181.44225348 -69.77330081 174.6600046 -54.92578125 162.30078125 C-41.69341697 149.85750291 -33.95328479 132.73512424 -32.74609375 114.6484375 C-32.38818414 95.32131864 -39.09043804 78.09606381 -52.27807617 63.9519043 C-60.62362754 55.45162334 -70.47665907 49.52486133 -81.74609375 45.6484375 C-82.41769531 45.41511719 -83.08929688 45.18179688 -83.78125 44.94140625 C-107.69125905 37.88516154 -132.71321592 46.59234437 -150.33203125 63.1484375 Z " fill="#E74B3B" transform="translate(357.74609375,69.3515625)"/>
</svg>
