<svg width="512" height="512" viewBox="0 0 512 512" fill="none" xmlns="http://www.w3.org/2000/svg">
<g clip-path="url(#clip0_80_23)">
<path d="M0 0C168.96 0 337.92 0 512 0C512 168.96 512 337.92 512 512C343.04 512 174.08 512 0 512C0 343.04 0 174.08 0 0Z" fill="#202122"/>
<path d="M424.144 193.424C424.434 193.424 424.434 193.424 424.729 193.424C437.013 193.474 447.556 198.891 456.192 207.36C456.541 207.78 456.885 208.205 457.216 208.64C457.723 208.387 457.723 208.387 458.24 208.128C458.24 207.064 458.163 206.857 457.613 206.012C457.414 205.702 457.414 205.702 457.211 205.385C457.07 205.171 456.929 204.957 456.784 204.736C456.376 204.105 455.969 203.474 455.561 202.842C455.307 202.453 455.049 202.066 454.786 201.683C454.083 200.634 453.719 199.911 453.76 198.608C453.763 198.356 453.765 198.104 453.768 197.845C453.906 197.011 454.158 196.52 454.656 195.84C455.562 195.236 455.945 195.262 457.018 195.258C457.347 195.255 457.676 195.253 458.015 195.25C458.375 195.25 458.734 195.251 459.094 195.251C459.463 195.25 459.832 195.249 460.201 195.248C460.974 195.246 461.748 195.246 462.521 195.247C463.511 195.249 464.5 195.244 465.49 195.238C466.252 195.235 467.014 195.234 467.776 195.235C468.141 195.235 468.506 195.234 468.871 195.231C469.381 195.228 469.892 195.23 470.403 195.233C470.839 195.232 470.839 195.232 471.284 195.232C472.171 195.341 472.641 195.549 473.344 196.096C473.873 196.924 473.921 197.585 473.922 198.557C473.924 198.852 473.925 199.146 473.927 199.449C473.926 199.935 473.926 199.935 473.925 200.43C473.925 200.777 473.927 201.125 473.928 201.472C473.931 202.427 473.931 203.382 473.931 204.337C473.93 205.366 473.933 206.396 473.936 207.426C473.94 209.443 473.941 211.461 473.942 213.478C473.942 215.118 473.943 216.757 473.945 218.397C473.949 223.044 473.951 227.691 473.951 232.338C473.951 232.588 473.951 232.839 473.951 233.097C473.951 233.348 473.951 233.599 473.951 233.858C473.951 237.925 473.956 241.992 473.963 246.059C473.97 250.233 473.974 254.408 473.973 258.582C473.973 260.926 473.974 263.271 473.98 265.615C473.985 267.611 473.986 269.607 473.982 271.602C473.981 272.621 473.981 273.639 473.985 274.658C473.989 275.59 473.988 276.522 473.984 277.455C473.983 277.952 473.987 278.449 473.991 278.946C473.978 280.579 473.964 281.653 472.832 282.88C472.005 283.481 471.236 283.459 470.232 283.466C469.913 283.47 469.594 283.473 469.266 283.476C468.919 283.477 468.572 283.478 468.225 283.478C467.868 283.48 467.511 283.481 467.154 283.483C466.406 283.486 465.658 283.487 464.911 283.487C463.954 283.487 462.997 283.494 462.041 283.503C461.303 283.508 460.566 283.509 459.829 283.509C459.476 283.51 459.124 283.512 458.771 283.516C458.277 283.521 457.783 283.519 457.29 283.516C457.009 283.517 456.728 283.518 456.439 283.519C455.503 283.362 455.08 283.017 454.4 282.368C453.577 281.146 453.689 279.679 453.888 278.272C454.297 277.267 454.857 276.411 455.472 275.52C455.62 275.295 455.768 275.069 455.921 274.837C456.211 274.396 456.503 273.956 456.798 273.517C457.194 272.929 457.583 272.337 457.965 271.74C458.068 271.579 458.171 271.419 458.277 271.254C458.537 270.85 458.537 270.85 458.496 270.336C458.029 270.139 458.029 270.139 457.472 270.08C457.022 270.37 457.022 270.37 456.629 270.834C456.47 271.003 456.311 271.171 456.147 271.345C455.977 271.529 455.807 271.714 455.632 271.904C449.567 278.223 441.463 282.649 432.896 284.416C432.469 284.517 432.043 284.618 431.616 284.72C420.807 287.031 408.762 283.908 399.616 278.016C397.036 276.267 394.687 274.292 392.448 272.128C392.089 271.789 392.089 271.789 391.723 271.443C383.481 263.477 378.842 251.738 378.55 240.367C378.429 228.396 382.675 216.86 390.912 208.128C391.175 207.815 391.437 207.5 391.696 207.184C392.543 206.195 393.495 205.374 394.496 204.544C394.686 204.381 394.686 204.381 394.881 204.215C403.133 197.167 413.323 193.415 424.144 193.424Z" fill="#2EF09D"/>
<path d="M225.04 193.44C225.234 193.44 225.429 193.441 225.629 193.441C237.778 193.493 248.505 198.89 257.024 207.36C257.373 207.78 257.717 208.205 258.048 208.64C258.555 208.387 258.555 208.387 259.072 208.128C259.072 207.064 258.995 206.857 258.445 206.012C258.246 205.702 258.246 205.702 258.043 205.385C257.902 205.171 257.761 204.957 257.616 204.736C257.208 204.105 256.801 203.474 256.393 202.842C256.139 202.453 255.881 202.066 255.618 201.683C254.915 200.634 254.551 199.911 254.592 198.608C254.595 198.356 254.597 198.104 254.6 197.845C254.738 197.011 254.99 196.52 255.488 195.84C256.394 195.236 256.777 195.262 257.85 195.258C258.179 195.255 258.508 195.253 258.847 195.25C259.207 195.25 259.566 195.251 259.926 195.251C260.295 195.25 260.664 195.249 261.033 195.248C261.806 195.246 262.58 195.246 263.353 195.247C264.343 195.249 265.332 195.244 266.322 195.238C267.084 195.235 267.846 195.234 268.608 195.235C268.973 195.235 269.338 195.234 269.702 195.231C270.213 195.228 270.724 195.23 271.235 195.233C271.671 195.232 271.671 195.232 272.116 195.232C272.997 195.34 273.469 195.566 274.176 196.096C274.755 196.964 274.752 197.257 274.753 198.274C274.755 198.569 274.756 198.864 274.758 199.168C274.757 199.494 274.756 199.819 274.755 200.155C274.756 200.503 274.757 200.851 274.758 201.2C274.76 202.159 274.76 203.118 274.759 204.077C274.758 205.11 274.76 206.143 274.762 207.177C274.766 209.202 274.766 211.228 274.765 213.253C274.765 214.899 274.765 216.545 274.766 218.191C274.767 218.425 274.767 218.659 274.767 218.9C274.767 219.376 274.768 219.851 274.768 220.326C274.771 224.787 274.77 229.248 274.769 233.709C274.767 237.792 274.77 241.875 274.775 245.958C274.78 250.147 274.782 254.337 274.781 258.527C274.781 260.88 274.781 263.234 274.785 265.587C274.788 267.59 274.788 269.594 274.785 271.597C274.784 272.62 274.783 273.642 274.786 274.665C274.789 275.601 274.788 276.537 274.785 277.472C274.784 277.972 274.787 278.472 274.79 278.971C274.788 279.268 274.786 279.564 274.784 279.869C274.784 280.125 274.784 280.381 274.784 280.644C274.634 281.737 274.195 282.41 273.332 283.082C272.515 283.448 271.929 283.491 271.035 283.495C270.716 283.499 270.397 283.502 270.069 283.505C269.723 283.505 269.378 283.504 269.032 283.503C268.675 283.504 268.319 283.506 267.962 283.507C267.216 283.509 266.469 283.509 265.723 283.506C264.768 283.503 263.814 283.508 262.859 283.516C262.123 283.521 261.387 283.521 260.651 283.519C260.299 283.519 259.947 283.521 259.595 283.524C259.103 283.528 258.61 283.524 258.118 283.52C257.838 283.52 257.558 283.52 257.27 283.52C256.335 283.362 255.911 283.016 255.232 282.368C254.452 281.172 254.468 279.899 254.72 278.528C255.323 277.173 256.089 275.94 256.88 274.688C257.189 274.186 257.496 273.683 257.803 273.18C257.994 272.869 258.186 272.559 258.379 272.251C258.777 271.614 259.089 271.052 259.328 270.336C258.859 270.142 258.859 270.142 258.304 270.08C257.866 270.353 257.866 270.353 257.49 270.796C257.339 270.956 257.187 271.115 257.031 271.28C256.87 271.454 256.71 271.628 256.544 271.808C254.778 273.645 252.947 275.248 250.88 276.736C250.727 276.846 250.574 276.957 250.416 277.071C247.345 279.26 244.072 280.935 240.575 282.341C240.05 282.552 239.531 282.778 239.015 283.011C238.045 283.406 237.083 283.676 236.064 283.904C235.778 283.968 235.778 283.968 235.486 284.033C235.091 284.12 234.695 284.207 234.299 284.292C233.78 284.405 233.263 284.528 232.747 284.652C221.726 287.019 209.841 283.925 200.448 278.016C197.859 276.284 195.517 274.29 193.28 272.128C192.921 271.789 192.921 271.789 192.555 271.443C185.494 264.619 181.672 255.529 179.968 246.016C179.921 245.782 179.875 245.548 179.827 245.306C179.679 244.241 179.665 243.196 179.66 242.122C179.659 241.895 179.657 241.668 179.656 241.435C179.653 240.955 179.651 240.475 179.651 239.995C179.648 239.275 179.64 238.555 179.632 237.835C179.615 234.999 179.828 232.396 180.48 229.632C180.532 229.398 180.585 229.163 180.638 228.922C183.296 217.395 190.578 206.997 200.52 200.584C204.707 197.979 209.004 196.09 213.76 194.816C214.009 194.74 214.258 194.664 214.514 194.586C217.926 193.557 221.501 193.429 225.04 193.44Z" fill="#2EF09D"/>
<path d="M98.864 200.736C99.3652 201.146 99.8617 201.561 100.352 201.984C100.57 202.17 100.789 202.356 101.014 202.548C101.66 203.115 102.287 203.697 102.912 204.288C103.275 204.622 103.275 204.622 103.645 204.962C105.962 207.143 108.547 209.924 109.568 212.992C109.99 212.654 110.413 212.316 110.848 211.968C110.69 210.943 110.364 210.141 109.895 209.219C109.757 208.946 109.619 208.673 109.478 208.391C109.261 207.968 109.261 207.968 109.04 207.536C108.895 207.249 108.749 206.961 108.6 206.665C108.241 205.958 107.881 205.25 107.52 204.544C111.604 199.5 118.25 196.269 124.445 194.684C124.895 194.568 125.344 194.445 125.792 194.322C128.663 193.553 131.452 193.495 134.416 193.504C134.751 193.503 135.087 193.502 135.433 193.501C145.272 193.511 153.703 198.122 160.615 204.875C165.672 209.968 168.834 216.576 170.72 223.424C170.769 223.599 170.818 223.774 170.868 223.954C171.818 227.67 171.852 231.509 171.846 235.318C171.847 235.821 171.849 236.324 171.85 236.827C171.854 238.178 171.854 239.53 171.853 240.882C171.853 242.013 171.854 243.145 171.855 244.276C171.858 246.943 171.858 249.61 171.857 252.277C171.855 255.027 171.858 257.777 171.864 260.526C171.868 262.893 171.87 265.259 171.869 267.626C171.869 269.037 171.869 270.448 171.873 271.86C171.876 273.183 171.876 274.507 171.872 275.831C171.872 276.317 171.872 276.803 171.874 277.288C171.877 277.951 171.875 278.613 171.872 279.276C171.874 279.468 171.876 279.661 171.878 279.859C171.866 280.998 171.705 281.717 171.008 282.624C170.018 283.404 169.248 283.491 168.005 283.499C167.837 283.502 167.669 283.504 167.496 283.506C166.944 283.512 166.392 283.512 165.84 283.512C165.455 283.514 165.069 283.516 164.684 283.518C163.877 283.521 163.071 283.522 162.264 283.52C161.232 283.519 160.2 283.527 159.168 283.537C158.373 283.544 157.577 283.544 156.782 283.543C156.401 283.544 156.021 283.546 155.64 283.551C155.108 283.556 154.576 283.554 154.043 283.549C153.589 283.55 153.589 283.55 153.126 283.551C151.941 283.317 151.411 282.663 150.753 281.685C150.424 280.81 150.458 279.951 150.464 279.029C150.462 278.715 150.462 278.716 150.461 278.395C150.459 277.694 150.461 276.992 150.463 276.29C150.462 275.787 150.461 275.284 150.46 274.781C150.458 273.697 150.457 272.612 150.458 271.528C150.459 269.811 150.455 268.093 150.45 266.376C150.438 261.491 150.432 256.607 150.431 251.722C150.43 249.026 150.425 246.329 150.416 243.632C150.411 241.928 150.411 240.224 150.413 238.52C150.414 237.454 150.41 236.389 150.406 235.323C150.404 234.832 150.405 234.342 150.407 233.852C150.423 230.093 150.098 226.496 148.272 223.12C148.139 222.866 148.139 222.866 148.003 222.606C147.272 221.245 146.467 220.012 145.408 218.88C145.228 218.686 145.048 218.493 144.862 218.293C141.791 215.267 137.634 213.975 133.376 213.92C128.739 213.963 124.203 215.551 120.749 218.684C116.654 222.999 115.286 228.285 115.337 234.044C115.336 234.468 115.336 234.893 115.335 235.317C115.333 236.222 115.335 237.126 115.339 238.03C115.346 239.461 115.344 240.892 115.341 242.323C115.336 245.873 115.34 249.424 115.347 252.974C115.352 255.742 115.354 258.51 115.348 261.279C115.345 262.701 115.348 264.123 115.355 265.545C115.359 266.428 115.357 267.311 115.353 268.194C115.353 268.603 115.355 269.012 115.359 269.42C115.364 269.979 115.361 270.538 115.357 271.096C115.357 271.409 115.358 271.721 115.359 272.043C115.146 273.186 114.731 273.61 113.92 274.432C113.207 274.789 112.617 274.726 111.819 274.733C111.485 274.737 111.151 274.74 110.807 274.743C110.44 274.745 110.074 274.747 109.707 274.749C109.431 274.751 109.431 274.751 109.148 274.752C108.173 274.758 107.197 274.761 106.221 274.764C105.214 274.766 104.207 274.775 103.2 274.785C102.424 274.792 101.649 274.794 100.874 274.795C100.503 274.796 100.132 274.799 99.7608 274.804C99.2406 274.81 98.7204 274.809 98.2002 274.808C97.7566 274.811 97.7566 274.811 97.304 274.813C96.3312 274.659 95.922 274.356 95.232 273.664C94.6334 272.753 94.6559 271.953 94.6556 270.879C94.6549 270.702 94.6541 270.525 94.6533 270.342C94.6514 269.749 94.653 269.156 94.6547 268.562C94.654 268.136 94.653 267.711 94.6519 267.285C94.6498 266.368 94.6492 265.451 94.6498 264.534C94.6505 263.081 94.6468 261.629 94.6424 260.176C94.6303 256.044 94.6242 251.913 94.6225 247.781C94.6216 245.5 94.6169 243.218 94.6084 240.937C94.6033 239.496 94.6026 238.055 94.6054 236.613C94.6061 235.712 94.6025 234.81 94.5977 233.908C94.5964 233.494 94.5967 233.079 94.599 232.665C94.6163 229.258 94.0825 226.231 92.48 223.168C92.3919 222.997 92.3037 222.826 92.2129 222.649C90.2014 218.862 87.3869 216.658 83.456 215.04C83.1313 214.901 83.1313 214.901 82.8 214.76C78.8701 213.299 73.7457 213.589 69.9199 215.248C65.3842 217.414 62.3806 221.095 60.672 225.792C59.9663 228.281 59.6076 230.737 59.6161 233.319C59.6158 233.525 59.6154 233.732 59.615 233.945C59.6141 234.632 59.615 235.319 59.6158 236.006C59.6154 236.5 59.6149 236.995 59.6143 237.49C59.6132 238.552 59.6127 239.615 59.6127 240.677C59.6124 242.358 59.6091 244.038 59.6051 245.718C59.6045 246.002 59.6038 246.286 59.6031 246.579C59.6018 247.159 59.6004 247.739 59.5991 248.319C59.5901 252.23 59.5833 256.14 59.5839 260.05C59.5843 262.69 59.5802 265.331 59.5709 267.971C59.5662 269.367 59.5638 270.764 59.567 272.16C59.5699 273.473 59.5669 274.785 59.5594 276.098C59.5577 276.579 59.5581 277.061 59.561 277.542C59.5645 278.2 59.5602 278.857 59.554 279.514C59.5569 279.705 59.5598 279.895 59.5628 280.091C59.5357 281.552 59.1126 282.148 58.112 283.136C57.382 283.501 56.7568 283.431 55.9407 283.437C55.7704 283.439 55.6001 283.441 55.4246 283.442C54.8601 283.447 54.2956 283.45 53.731 283.453C53.4418 283.455 53.4418 283.455 53.1468 283.456C52.1261 283.462 51.1055 283.465 50.0848 283.468C49.0311 283.47 47.9776 283.479 46.9239 283.489C46.1133 283.496 45.3027 283.498 44.4921 283.499C44.1037 283.5 43.7154 283.503 43.327 283.508C42.7828 283.514 42.239 283.514 41.6947 283.512C41.2306 283.515 41.2306 283.515 40.7571 283.517C39.7644 283.366 39.3567 283.077 38.656 282.368C38.0117 281.421 38.0717 280.437 38.0773 279.333C38.0763 279.129 38.0753 278.925 38.0743 278.714C38.0717 278.03 38.0727 277.345 38.0737 276.66C38.0726 276.169 38.0713 275.678 38.0698 275.188C38.0663 273.852 38.0662 272.517 38.0668 271.182C38.0671 270.064 38.0659 268.947 38.0646 267.83C38.0618 265.188 38.0617 262.547 38.0632 259.906C38.0648 257.192 38.0616 254.478 38.0562 251.765C38.0516 249.429 38.0501 247.093 38.051 244.757C38.0514 243.365 38.0508 241.973 38.0472 240.58C38.0439 239.266 38.0445 237.953 38.0478 236.639C38.0484 236.161 38.0477 235.683 38.0456 235.205C38.0279 230.935 38.357 226.616 39.616 222.512C39.6818 222.291 39.7475 222.07 39.8152 221.843C40.4588 219.75 41.2776 217.772 42.24 215.808C42.3241 215.633 42.4082 215.457 42.4948 215.276C46.8933 206.179 54.8682 198.874 64.352 195.344C75.7621 191.58 89.2378 193.278 98.864 200.736Z" fill="#2EF09D"/>
<path d="M288.381 195.254C288.548 195.252 288.716 195.25 288.888 195.248C289.442 195.244 289.995 195.243 290.549 195.242C290.935 195.24 291.32 195.239 291.706 195.237C292.514 195.234 293.323 195.233 294.131 195.233C295.165 195.233 296.199 195.226 297.232 195.217C298.029 195.212 298.826 195.211 299.622 195.211C300.003 195.21 300.384 195.208 300.765 195.204C301.3 195.199 301.833 195.201 302.368 195.204C302.671 195.203 302.975 195.202 303.288 195.201C304.524 195.388 305.305 195.993 306.176 196.864C306.24 197.64 306.24 197.64 306.24 198.658C306.241 198.845 306.242 199.032 306.243 199.225C306.245 199.854 306.243 200.484 306.241 201.114C306.242 201.564 306.243 202.015 306.244 202.465C306.246 203.437 306.247 204.41 306.246 205.382C306.246 206.925 306.249 208.467 306.254 210.01C306.266 214.397 306.272 218.785 306.274 223.172C306.274 225.594 306.279 228.015 306.288 230.436C306.292 231.716 306.294 232.995 306.292 234.275C306.113 243.047 306.113 243.047 308.416 251.424C308.503 251.622 308.591 251.82 308.681 252.025C309.438 253.68 310.383 255.116 311.552 256.512C311.671 256.672 311.791 256.833 311.914 256.998C314.487 260.323 318.832 262.406 322.915 263.088C329.81 263.915 335.918 262.722 341.504 258.56C341.763 258.37 342.021 258.18 342.288 257.984C344.883 255.726 346.62 252.608 347.712 249.392C347.802 249.129 347.802 249.129 347.894 248.86C349.002 245.396 349.295 242.114 349.27 238.507C349.27 238.05 349.27 237.592 349.271 237.135C349.271 236.158 349.269 235.181 349.266 234.204C349.26 232.66 349.261 231.115 349.264 229.57C349.27 225.18 349.267 220.79 349.257 216.4C349.252 213.969 349.252 211.538 349.258 209.107C349.261 207.571 349.258 206.036 349.25 204.5C349.246 203.546 349.249 202.593 349.253 201.64C349.254 201.198 349.252 200.756 349.247 200.314C349.241 199.711 349.245 199.108 349.251 198.505C349.25 198.167 349.25 197.83 349.249 197.482C349.515 196.264 349.946 196.005 350.976 195.328C351.813 195.169 351.813 195.169 352.728 195.17C352.896 195.169 353.064 195.168 353.237 195.166C353.788 195.163 354.338 195.169 354.889 195.176C355.274 195.176 355.659 195.176 356.044 195.176C356.849 195.176 357.654 195.181 358.459 195.189C359.489 195.199 360.519 195.201 361.549 195.199C362.344 195.198 363.138 195.201 363.932 195.205C364.312 195.207 364.692 195.208 365.072 195.208C365.603 195.208 366.134 195.214 366.665 195.22C366.967 195.223 367.269 195.225 367.58 195.227C368.681 195.365 369.33 195.733 370.078 196.546C370.521 197.264 370.528 197.707 370.529 198.547C370.531 198.839 370.533 199.131 370.535 199.432C370.533 199.753 370.531 200.075 370.53 200.406C370.53 200.75 370.532 201.095 370.533 201.439C370.536 202.387 370.535 203.335 370.532 204.283C370.531 205.306 370.533 206.328 370.535 207.351C370.539 209.355 370.538 211.36 370.536 213.365C370.534 214.998 370.534 216.63 370.535 218.262C370.535 218.495 370.535 218.727 370.535 218.967C370.535 219.439 370.536 219.911 370.536 220.383C370.538 224.817 370.536 229.25 370.531 233.684C370.528 237.476 370.529 241.268 370.532 245.06C370.536 249.469 370.538 253.878 370.535 258.287C370.535 258.76 370.535 259.232 370.535 259.704C370.535 259.936 370.535 260.169 370.534 260.408C370.534 262.033 370.535 263.657 370.537 265.282C370.539 267.271 370.538 269.259 370.534 271.248C370.532 272.26 370.531 273.272 370.534 274.284C370.548 280.373 370.42 286.479 368.64 292.352C368.551 292.659 368.462 292.966 368.371 293.282C366.717 298.637 364.071 303.159 360.192 307.2C359.977 307.432 359.761 307.663 359.539 307.902C357.87 309.646 356.095 311.047 354.048 312.32C353.896 312.416 353.744 312.511 353.587 312.61C349.662 315.046 345.251 316.735 340.736 317.696C340.435 317.765 340.435 317.765 340.127 317.836C336.263 318.698 332.454 318.822 328.512 318.832C328.265 318.834 328.018 318.835 327.764 318.837C327.055 318.84 326.345 318.837 325.636 318.831C325.315 318.832 325.315 318.832 324.988 318.833C323.806 318.814 322.989 318.743 322.048 317.952C321.341 316.973 321.183 316.289 321.177 315.09C321.172 314.62 321.172 314.62 321.167 314.14C321.167 313.803 321.168 313.467 321.169 313.12C321.168 312.769 321.166 312.418 321.165 312.067C321.163 311.333 321.163 310.599 321.166 309.864C321.169 308.925 321.164 307.986 321.156 307.047C321.151 306.323 321.151 305.599 321.153 304.874C321.153 304.36 321.149 303.846 321.144 303.332C321.147 303.019 321.149 302.705 321.152 302.382C321.152 302.107 321.152 301.831 321.152 301.548C321.311 300.618 321.656 300.193 322.304 299.52C323.314 298.954 324.215 298.947 325.359 298.947C325.711 298.944 326.063 298.941 326.414 298.937C326.597 298.936 326.78 298.935 326.969 298.934C334.148 298.862 341.655 297.334 347.045 292.222C348.774 290.396 350.164 288.29 350.219 285.685C350.212 285.512 350.205 285.34 350.197 285.162C350.058 281.839 351.277 280.044 353.348 277.537C354.03 276.7 354.655 275.824 355.28 274.944C355.389 274.795 355.498 274.646 355.61 274.493C356.18 273.769 356.18 273.769 356.352 272.896C355.376 273.045 354.9 273.476 354.176 274.128C350.936 276.837 347.147 278.783 343.257 280.38C342.859 280.545 342.465 280.717 342.072 280.892C340.162 281.72 338.154 282.181 336.128 282.624C335.959 282.663 335.79 282.703 335.616 282.743C332.641 283.419 329.66 283.473 326.624 283.488C326.43 283.49 326.237 283.492 326.037 283.494C320.117 283.542 314.567 282.126 309.248 279.552C309.085 279.473 308.922 279.394 308.754 279.313C299.12 274.575 292.533 266.441 288.256 256.768C288.156 256.552 288.057 256.335 287.954 256.112C285.569 250.639 285.146 244.118 285.143 238.235C285.142 237.787 285.14 237.34 285.139 236.893C285.136 235.685 285.134 234.477 285.133 233.269C285.132 232.514 285.131 231.759 285.13 231.004C285.126 228.639 285.124 226.274 285.123 223.91C285.122 221.183 285.117 218.456 285.11 215.729C285.104 213.618 285.102 211.507 285.101 209.396C285.101 208.136 285.1 206.876 285.095 205.616C285.091 204.433 285.09 203.25 285.092 202.066C285.093 201.632 285.092 201.198 285.089 200.764C285.086 200.171 285.087 199.579 285.09 198.987C285.09 198.655 285.089 198.324 285.089 197.982C285.192 197.051 285.386 196.578 285.952 195.84C286.871 195.227 287.288 195.261 288.381 195.254Z" fill="#2EF09D"/>
<path d="M242.327 218.858C246.155 222.171 248.726 225.856 250.368 230.656C250.479 230.971 250.59 231.286 250.705 231.611C252.78 238.703 251.552 246.808 248.143 253.232C244.423 259.398 238.645 263.22 231.711 264.952C224.478 266.516 216.725 265.253 210.432 261.376C209.52 260.749 208.691 260.072 207.872 259.328C207.641 259.12 207.409 258.913 207.171 258.699C204.419 256.099 202.675 253.08 201.216 249.6C201.138 249.423 201.06 249.246 200.979 249.063C199.698 245.968 199.533 242.737 199.552 239.44C199.552 239.238 199.553 239.035 199.553 238.827C199.565 235.681 199.829 232.85 200.96 229.888C201.061 229.603 201.163 229.318 201.267 229.025C203.743 222.567 208.573 217.886 214.784 215.04C215.878 214.607 216.968 214.288 218.112 214.016C218.426 213.94 218.739 213.864 219.062 213.785C227.079 212.019 235.883 213.653 242.327 218.858Z" fill="#202122"/>
<path d="M440.832 218.368C441.717 219.106 442.559 219.877 443.392 220.672C443.549 220.81 443.706 220.948 443.868 221.09C447.806 224.685 450.308 230.956 450.613 236.177C450.815 243.821 449.88 250.375 444.928 256.512C444.784 256.695 444.64 256.878 444.491 257.067C440.296 262.146 433.871 264.61 427.52 265.472C420.72 266.081 413.342 264.624 407.973 260.18C407.199 259.503 406.478 258.784 405.76 258.048C405.552 257.84 405.345 257.632 405.131 257.417C400.318 252.357 398.8 245.86 398.752 239.072C398.75 238.898 398.748 238.724 398.746 238.545C398.688 232.117 400.894 225.94 405.248 221.184C405.435 220.979 405.623 220.773 405.816 220.562C408.883 217.355 412.967 215.042 417.28 214.016C417.594 213.94 417.907 213.864 418.23 213.785C425.916 212.091 434.54 213.482 440.832 218.368Z" fill="#202122"/>
</g>
<defs>
<clipPath id="clip0_80_23">
<rect width="512" height="512" rx="100" fill="white"/>
</clipPath>
</defs>
</svg>
