<?xml version="1.0" encoding="UTF-8"?>
<svg version="1.1" xmlns="http://www.w3.org/2000/svg" width="512" height="512">
<path d="M0 0 C4.41424545 4.19353317 6.7394879 7.28459193 7.10546875 13.45703125 C6.95790036 22.70232981 2.42451623 30.43640018 -1.5625 38.5625 C-2.39314768 40.29957719 -3.22123563 42.03788052 -4.046875 43.77734375 C-5.72321132 47.30552788 -7.40913498 50.82886473 -9.10205078 54.34912109 C-12.20299225 60.8200692 -15.16394293 67.35190472 -18.10836792 73.89517212 C-19.61734426 77.24578444 -21.13634081 80.59183569 -22.65625 83.9375 C-22.96304184 84.61291336 -23.26983368 85.28832672 -23.58592224 85.98420715 C-27.89938373 95.46730556 -32.28264544 104.91833728 -36.65576172 114.37402344 C-41.81097433 125.52290763 -46.93019383 136.6870271 -52 147.875 C-57.82746097 160.73495427 -63.72921343 173.55945895 -69.65576172 186.37402344 C-74.81097433 197.52290763 -79.93019383 208.6870271 -85 219.875 C-90.82746097 232.73495427 -96.72921343 245.55945895 -102.65576172 258.37402344 C-107.81097433 269.52290763 -112.93019383 280.6870271 -118 291.875 C-123.82578586 304.73125765 -129.72550792 317.55223587 -135.65072632 330.36294556 C-140.59834453 341.06191814 -145.51496885 351.77397209 -150.38137817 362.51013184 C-151.30189833 364.53913191 -152.224624 366.56711282 -153.14819336 368.59472656 C-153.7498695 369.91600093 -154.35151365 371.23728987 -154.953125 372.55859375 C-155.2467543 373.20341705 -155.54038361 373.84824036 -155.84291077 374.51260376 C-157.65050341 378.48831719 -159.43799532 382.47246763 -161.21296692 386.46284485 C-162.37636755 389.07127274 -163.55206031 391.67404128 -164.73031616 394.27578735 C-165.53593149 396.06596157 -166.32550217 397.86332946 -167.11450195 399.66088867 C-170.19000913 406.42295442 -172.68774359 410.96887179 -179.5 414.375 C-185.03042052 414.88002343 -189.91030524 415.11307257 -195 412.75 C-200.11653793 407.88928897 -202.10016272 403.46040324 -202.66122437 396.50572205 C-202.77133223 395.38977878 -202.77133223 395.38977878 -202.88366449 394.25129122 C-203.10555547 391.96037113 -203.30421535 389.66828094 -203.5 387.375 C-203.62436899 386.03877287 -203.7498349 384.70264726 -203.87654495 383.36664009 C-204.24645392 379.34047807 -204.58710312 375.31275269 -204.92041016 371.28344727 C-205.04855016 369.7602191 -205.17692992 368.23701108 -205.30552673 366.71382141 C-205.64902259 362.63599846 -205.9889205 358.5578837 -206.32786608 354.4796803 C-206.61261805 351.05737548 -206.8991304 347.63521888 -207.18560541 344.21305794 C-207.86141142 336.13940977 -208.53420751 328.06551473 -209.20507812 319.99145508 C-209.89497431 311.68907281 -210.5900489 303.38713538 -211.28762782 295.0853954 C-211.88939101 287.92172293 -212.48792975 280.75778596 -213.08391225 273.59363025 C-213.43863282 269.33001531 -213.79454467 265.06650875 -214.15358353 260.80325508 C-214.49055503 256.80037712 -214.82347512 252.79718188 -215.153368 248.79371452 C-215.27448252 247.33196577 -215.39698472 245.87033117 -215.52103615 244.40882874 C-216.17328277 236.71402599 -216.6907716 229.09973529 -216.5 221.375 C-217.81302094 221.40085175 -219.12604187 221.42670349 -220.47885132 221.45333862 C-227.95988042 221.4482572 -235.39021957 220.75095041 -242.83837891 220.12158203 C-244.47214538 219.9865625 -246.10594038 219.85188776 -247.73976135 219.7175293 C-252.15105938 219.35360899 -256.56190004 218.98440906 -260.97264528 218.61385584 C-264.66297153 218.30425129 -268.3535001 217.99709593 -272.04402578 217.6898793 C-280.75135737 216.96493535 -289.45830753 216.23553068 -298.16503906 215.50341797 C-307.13385769 214.74935454 -316.10331221 214.00322946 -325.07311118 213.26092637 C-332.79097228 212.62192378 -340.50839478 211.97780227 -348.22549188 211.32963836 C-352.82745115 210.94318026 -357.42955283 210.5586854 -362.03209305 210.17920303 C-366.35824844 209.82230064 -370.6838199 209.45899615 -375.0090313 209.09083557 C-376.59224293 208.95714149 -378.17564495 208.82567952 -379.75924492 208.69666672 C-401.511156 206.92094577 -401.511156 206.92094577 -407.5 200.375 C-410.43268606 195.03813315 -410.86013933 190.49361655 -409.53125 184.61328125 C-406.81952299 178.72760105 -402.9620482 175.66455719 -397.171875 173.03515625 C-396.55922287 172.75185455 -395.94657074 172.46855286 -395.31535339 172.17666626 C-393.29989256 171.24901271 -391.27533914 170.343357 -389.25 169.4375 C-387.81131358 168.78040142 -386.37325505 168.12192658 -384.93579102 167.4621582 C-381.1962214 165.75012862 -377.44875699 164.05618049 -373.6987915 162.36706543 C-370.26766767 160.81898807 -366.84291012 159.2570079 -363.41796875 157.6953125 C-359.39861356 155.86392196 -355.37831264 154.03469681 -351.35449219 152.21313477 C-340.54547206 147.31904668 -329.76896842 142.35652325 -319 137.375 C-306.35386863 131.52601935 -293.69003849 125.71916825 -280.99902344 119.96826172 C-269.64269586 114.8206125 -258.31682673 109.60886652 -247 104.375 C-234.35374178 98.52629089 -221.6900407 92.71916925 -208.99902344 86.96826172 C-197.64269586 81.8206125 -186.31682673 76.60886652 -175 71.375 C-162.35374178 65.52629089 -149.6900407 59.71916925 -136.99902344 53.96826172 C-125.64269449 48.82061188 -114.31689865 43.60871306 -103 38.375 C-89.60883861 32.18259519 -76.20988396 26.00855079 -62.75708008 19.95092773 C-56.30249874 17.04035695 -49.87195951 14.09179437 -43.48599243 11.03302002 C-40.32469907 9.52067873 -37.15557999 8.02513407 -33.98596191 6.53033447 C-32.47746697 5.81310036 -30.97281331 5.08771906 -29.47253418 4.35345459 C-19.95648846 -0.30098639 -10.38238091 -4.82039114 0 0 Z " fill="#000000" transform="translate(457.5,49.625)"/>
</svg>
