<svg width="202" height="187" viewBox="0 0 202 187" fill="none" xmlns="http://www.w3.org/2000/svg">
<rect width="202" height="187" rx="20" fill="url(#paint0_linear_51_23)"/>
<g filter="url(#filter0_d_51_23)">
<path d="M165.312 62.9336H165.318C166.916 62.9337 168.427 63.3062 170.017 64.9014C171.448 66.3385 171.5 68.6055 171.5 69.626V111.867C171.5 114.352 169.485 116.367 167 116.367H161.426C161.098 114.17 160.048 112.318 158.444 110.963C156.513 109.33 153.887 108.5 151 108.5C148.119 108.5 145.36 109.326 143.285 110.918C141.552 112.249 140.316 114.107 139.936 116.367H67.0293C66.7123 114.178 65.6885 112.314 64.0186 110.947C62.0148 109.307 59.2325 108.5 56 108.5C50.004 108.5 45.9275 112.13 45.1416 116.367H36.2021C34.27 116.367 32.7043 114.8 32.7041 112.867V109.771C33.5813 109.338 34.1947 108.626 34.5859 107.978C34.875 107.498 35.0765 107.004 35.2051 106.567C35.3258 106.157 35.4115 105.695 35.3945 105.287C35.3759 104.839 35.2698 103.69 34.7852 102.584C34.4285 101.77 33.7796 100.822 32.6992 100.324C32.6803 95.3599 32.587 86.5566 33.3213 77.1758L33.4941 75.1357V75.1299C33.4947 75.124 33.4956 75.113 33.4971 75.0986C33.5 75.0698 33.5048 75.0245 33.5117 74.9639C33.5256 74.8422 33.5485 74.6592 33.582 74.4238C33.6493 73.9523 33.7608 73.2735 33.9346 72.4619C34.2783 70.8569 34.8595 68.7697 35.8086 66.7432C37.6528 64.011 39.7355 62.5004 42.4209 62.5L165.312 62.9336ZM31.3398 103.015C31.6023 103.091 31.8268 103.306 32.0381 103.788C32.31 104.408 32.3861 105.138 32.3975 105.412C32.3955 105.364 32.4001 105.473 32.3271 105.721C32.2621 105.942 32.1575 106.194 32.0166 106.428C31.7982 106.79 31.561 107.005 31.3125 107.105C30.5637 106.821 30.18 106.593 29.9531 106.37C29.7669 106.187 29.591 105.913 29.5068 105.252C29.5582 104.625 29.7364 104.193 29.9971 103.873C30.2455 103.568 30.6522 103.261 31.3398 103.015Z" stroke="#F5F5F5" stroke-width="3" shape-rendering="crispEdges"/>
</g>
<g filter="url(#filter1_d_51_23)">
<circle cx="56.1995" cy="119.7" r="5.4495" stroke="#F5F5F5" stroke-width="3.5" shape-rendering="crispEdges"/>
</g>
<g filter="url(#filter2_d_51_23)">
<circle cx="56.1996" cy="119.699" r="1.19992" fill="#F5F5F5"/>
</g>
<g filter="url(#filter3_d_51_23)">
<circle cx="151.199" cy="119.7" r="5.4495" stroke="#F5F5F5" stroke-width="3.5" shape-rendering="crispEdges"/>
</g>
<g filter="url(#filter4_d_51_23)">
<circle cx="151.199" cy="119.699" r="1.19992" fill="#F5F5F5"/>
</g>
<path d="M87 86.5405V74C87 72.8954 87.8954 72 89 72H91C92.1046 72 93 72.8954 93 74V86.5405C93 87.6451 92.1046 88.5405 91 88.5405H89C87.8954 88.5405 87 87.6451 87 86.5405Z" stroke="#F5F5F5" stroke-width="1.5"/>
<path d="M96 87V74C96 72.8954 96.8954 72 98 72H100C101.105 72 102 72.8954 102 74V87C102 88.1046 101.105 89 100 89H98C96.8954 89 96 88.1046 96 87Z" stroke="#F5F5F5" stroke-width="1.5"/>
<path d="M96 106V95.4054C96 94.3008 96.8954 93.4054 98 93.4054H100C101.105 93.4054 102 94.3008 102 95.4054V106C102 107.105 101.105 108 100 108H98C96.8954 108 96 107.105 96 106Z" stroke="#F5F5F5" stroke-width="1.5"/>
<path d="M87 106V95.4054C87 94.3008 87.8954 93.4054 89 93.4054H91C92.1046 93.4054 93 94.3008 93 95.4054V106C93 107.105 92.1046 108 91 108H89C87.8954 108 87 107.105 87 106Z" stroke="#F5F5F5" stroke-width="1.5"/>
<path d="M161 69H120C117.791 69 116 70.7909 116 73V85C116 87.2091 117.791 89 120 89H161C163.209 89 165 87.2091 165 85V73C165 70.7909 163.209 69 161 69Z" stroke="#F5F5F5" stroke-width="3"/>
<path d="M133 116.5V112C133 110.343 131.657 109 130 109H119.5C117.843 109 116.5 110.343 116.5 112V116.5" stroke="#F5F5F5" stroke-width="3"/>
<path d="M63.3151 89V98.0254C63.3151 100.225 61.5414 102.012 59.3437 102.094C56.2645 102.207 52.2382 102.457 50.5 103C49.4861 103.317 47.9583 104.105 46.3797 105.009C43.5986 106.603 40 104.679 40 101.474V89M63.3151 89H71.5C73.7091 89 75.5 87.2091 75.5 85V73C75.5 70.7909 73.7091 69 71.5 69H46.3512C45.0922 69 43.8811 69.5756 43.1946 70.631C42.1902 72.1753 41.3665 73.9348 41 76.5C40 81.5 40 89 40 89M63.3151 89H40M63.3151 89L63.2926 80.4894C63.2867 78.2844 61.4976 76.5 59.2926 76.5H41.5" stroke="#F5F5F5" stroke-width="3"/>
<path d="M83 108V72C83 69.7909 84.7909 68 87 68H102C104.209 68 106 69.7909 106 72V108C106 110.209 104.209 112 102 112H87C84.7909 112 83 110.209 83 108Z" stroke="#F5F5F5" stroke-width="2"/>
<defs>
<filter id="filter0_d_51_23" x="24" y="61" width="153" height="64.8669" filterUnits="userSpaceOnUse" color-interpolation-filters="sRGB">
<feFlood flood-opacity="0" result="BackgroundImageFix"/>
<feColorMatrix in="SourceAlpha" type="matrix" values="0 0 0 0 0 0 0 0 0 0 0 0 0 0 0 0 0 0 127 0" result="hardAlpha"/>
<feOffset dy="4"/>
<feGaussianBlur stdDeviation="2"/>
<feComposite in2="hardAlpha" operator="out"/>
<feColorMatrix type="matrix" values="0 0 0 0 0.117647 0 0 0 0 0.117647 0 0 0 0 0.117647 0 0 0 0.27 0"/>
<feBlend mode="normal" in2="BackgroundImageFix" result="effect1_dropShadow_51_23"/>
<feBlend mode="normal" in="SourceGraphic" in2="effect1_dropShadow_51_23" result="shape"/>
</filter>
<filter id="filter1_d_51_23" x="45" y="112.5" width="22.399" height="22.399" filterUnits="userSpaceOnUse" color-interpolation-filters="sRGB">
<feFlood flood-opacity="0" result="BackgroundImageFix"/>
<feColorMatrix in="SourceAlpha" type="matrix" values="0 0 0 0 0 0 0 0 0 0 0 0 0 0 0 0 0 0 127 0" result="hardAlpha"/>
<feOffset dy="4"/>
<feGaussianBlur stdDeviation="2"/>
<feComposite in2="hardAlpha" operator="out"/>
<feColorMatrix type="matrix" values="0 0 0 0 0.117647 0 0 0 0 0.117647 0 0 0 0 0.117647 0 0 0 0.21 0"/>
<feBlend mode="normal" in2="BackgroundImageFix" result="effect1_dropShadow_51_23"/>
<feBlend mode="normal" in="SourceGraphic" in2="effect1_dropShadow_51_23" result="shape"/>
</filter>
<filter id="filter2_d_51_23" x="50.9996" y="118.5" width="10.3998" height="10.3998" filterUnits="userSpaceOnUse" color-interpolation-filters="sRGB">
<feFlood flood-opacity="0" result="BackgroundImageFix"/>
<feColorMatrix in="SourceAlpha" type="matrix" values="0 0 0 0 0 0 0 0 0 0 0 0 0 0 0 0 0 0 127 0" result="hardAlpha"/>
<feOffset dy="4"/>
<feGaussianBlur stdDeviation="2"/>
<feComposite in2="hardAlpha" operator="out"/>
<feColorMatrix type="matrix" values="0 0 0 0 0.117647 0 0 0 0 0.117647 0 0 0 0 0.117647 0 0 0 0.21 0"/>
<feBlend mode="normal" in2="BackgroundImageFix" result="effect1_dropShadow_51_23"/>
<feBlend mode="normal" in="SourceGraphic" in2="effect1_dropShadow_51_23" result="shape"/>
</filter>
<filter id="filter3_d_51_23" x="140" y="112.5" width="22.399" height="22.399" filterUnits="userSpaceOnUse" color-interpolation-filters="sRGB">
<feFlood flood-opacity="0" result="BackgroundImageFix"/>
<feColorMatrix in="SourceAlpha" type="matrix" values="0 0 0 0 0 0 0 0 0 0 0 0 0 0 0 0 0 0 127 0" result="hardAlpha"/>
<feOffset dy="4"/>
<feGaussianBlur stdDeviation="2"/>
<feComposite in2="hardAlpha" operator="out"/>
<feColorMatrix type="matrix" values="0 0 0 0 0.117647 0 0 0 0 0.117647 0 0 0 0 0.117647 0 0 0 0.21 0"/>
<feBlend mode="normal" in2="BackgroundImageFix" result="effect1_dropShadow_51_23"/>
<feBlend mode="normal" in="SourceGraphic" in2="effect1_dropShadow_51_23" result="shape"/>
</filter>
<filter id="filter4_d_51_23" x="146" y="118.5" width="10.3998" height="10.3998" filterUnits="userSpaceOnUse" color-interpolation-filters="sRGB">
<feFlood flood-opacity="0" result="BackgroundImageFix"/>
<feColorMatrix in="SourceAlpha" type="matrix" values="0 0 0 0 0 0 0 0 0 0 0 0 0 0 0 0 0 0 127 0" result="hardAlpha"/>
<feOffset dy="4"/>
<feGaussianBlur stdDeviation="2"/>
<feComposite in2="hardAlpha" operator="out"/>
<feColorMatrix type="matrix" values="0 0 0 0 0.117647 0 0 0 0 0.117647 0 0 0 0 0.117647 0 0 0 0.21 0"/>
<feBlend mode="normal" in2="BackgroundImageFix" result="effect1_dropShadow_51_23"/>
<feBlend mode="normal" in="SourceGraphic" in2="effect1_dropShadow_51_23" result="shape"/>
</filter>
<linearGradient id="paint0_linear_51_23" x1="7.44496e-06" y1="-13" x2="271.5" y2="209.5" gradientUnits="userSpaceOnUse">
<stop stop-color="#38CE7C"/>
<stop offset="1" stop-color="#DDCC34"/>
</linearGradient>
</defs>
</svg>
