<svg width="512" height="512" viewBox="0 0 512 512" fill="none" xmlns="http://www.w3.org/2000/svg">
<g clip-path="url(#clip0_73_2)">
<rect width="512" height="512" rx="100" fill="#E6F48F"/>
<path d="M511.5 511.5V0.5H0.5V511.5H511.5ZM203.94 355.656C200.934 355.894 197.303 355.777 192.859 355.441L190.903 355.284C187.981 355.059 185.746 354.888 184.07 354.566C182.395 354.245 181.173 353.755 180.364 352.815C179.558 351.878 179.239 350.581 179.139 348.843C179.063 347.537 179.109 345.921 179.2 343.93L179.303 341.811C179.596 335.363 181.023 326.63 182.777 321.649L182.948 321.18L182.95 321.176C183.702 319.222 184.361 317.676 185.229 316.486C186.113 315.274 187.204 314.442 188.783 313.882C190.34 313.33 192.366 313.045 195.121 312.894C197.881 312.742 201.415 312.724 206.005 312.724H225.193L228.409 300.152V300.151C229.989 293.833 231.217 289.028 232.492 285.374C233.767 281.721 235.106 279.159 236.939 277.365C238.784 275.56 241.082 274.579 244.175 273.989C247.252 273.402 251.168 273.195 256.277 272.97V272.969L274.585 272.084L283.526 238.403C285.933 229.078 287.887 220.132 289.127 213.22C289.747 209.763 290.187 206.821 290.416 204.599C290.53 203.487 290.591 202.563 290.596 201.849C290.601 201.112 290.546 200.664 290.469 200.458L290.465 200.449L290.462 200.44C290.236 199.762 289.577 199.101 287.834 198.526C286.095 197.953 283.396 197.505 279.3 197.167C271.117 196.491 257.51 196.265 235.219 196.265C219.252 196.265 205.539 195.963 195.663 195.436C190.727 195.172 186.74 194.851 183.907 194.481C182.493 194.297 181.352 194.099 180.52 193.886C180.104 193.779 179.751 193.665 179.473 193.541C179.247 193.44 179.01 193.306 178.849 193.115L178.784 193.03L178.78 193.024L178.776 193.018C178.519 192.605 178.396 191.976 178.343 191.257C178.287 190.514 178.301 189.59 178.372 188.526C178.515 186.397 178.894 183.656 179.461 180.578C180.594 174.42 182.483 166.867 184.749 160.067L184.752 160.061L184.754 160.053C184.88 159.709 185.182 159.462 185.495 159.277C185.823 159.084 186.249 158.91 186.752 158.75C187.76 158.43 189.154 158.141 190.867 157.88C194.299 157.356 199.087 156.931 204.8 156.602C216.23 155.942 231.413 155.66 246.967 155.735C262.521 155.811 278.456 156.244 291.39 157.017C297.856 157.403 303.578 157.874 308.13 158.429C312.379 158.946 315.657 159.542 317.565 160.227L317.929 160.364L317.939 160.369C322.871 162.494 326.699 164.943 329.415 168.302C332.137 171.667 333.705 175.902 334.201 181.528C335.127 192.036 332.315 207.526 326.132 231.616L324.851 236.551V236.553L315.213 272.693L315.121 273.036L314.768 273.063L295.191 274.569L275.969 276.049L271.542 292.871C270.333 297.556 268.822 302.241 267.423 305.946C266.723 307.799 266.05 309.412 265.454 310.662C265.156 311.287 264.874 311.826 264.616 312.261C264.363 312.688 264.116 313.043 263.883 313.276L263.867 313.292L263.85 313.307L263.626 313.474C263.054 313.859 262.137 314.222 261.016 314.563C259.708 314.961 258.041 315.35 256.13 315.71C252.783 316.34 248.659 316.882 244.339 317.21L242.478 317.337H242.473L225.076 318.222L220.947 335.327L220.946 335.332L220.497 337.066C219.457 341.003 218.452 344.19 217.277 346.736C215.931 349.655 214.346 351.765 212.193 353.206C210.044 354.645 207.381 355.384 203.94 355.656Z" fill="#08241F" stroke="#08241F"/>
</g>
<defs>
<clipPath id="clip0_73_2">
<rect width="512" height="512" rx="100" fill="white"/>
</clipPath>
</defs>
</svg>
