<?xml version="1.0" encoding="UTF-8"?>
<svg version="1.1" xmlns="http://www.w3.org/2000/svg" width="512" height="512">
<path d="M0 0 C8.63984904 7.39086938 14.49711139 15.09012911 15.40332031 26.67651367 C15.52396186 29.8469026 15.55479195 33.00708568 15.55859375 36.1796875 C15.58308594 37.24380859 15.60757813 38.30792969 15.6328125 39.40429688 C15.66051355 46.97129974 14.98648865 55.80368813 9.54833984 61.61450195 C4.41766399 70.08332952 9.27042382 87.24077352 10.24809551 96.94848537 C10.60292008 100.47875955 10.93460211 104.00790635 11.2121582 107.54516602 C11.65448572 123.8209646 11.65448572 123.8209646 18.19799805 137.85058594 C21.23494616 140.43760781 24.61153492 142.10682825 28.18359375 143.8671875 C35.34942846 150.32075971 41.33757377 159.26991219 43.18359375 168.8671875 C43.31345073 171.42940012 43.39522266 173.96408611 43.421875 176.52734375 C43.42994675 177.27245712 43.43801849 178.0175705 43.44633484 178.78526306 C43.46014369 180.36292215 43.47088011 181.94061071 43.47875977 183.51831055 C43.49022632 185.11345325 43.51059296 186.70855921 43.5402832 188.3034668 C43.79944255 202.24450251 41.77918334 212.4780313 33.18359375 223.8671875 C32.5803125 224.67800781 31.97703125 225.48882812 31.35546875 226.32421875 C16.70626494 243.47643401 -7.81287728 251.20795221 -29.19140625 255.2421875 C-30.50939209 255.49403809 -30.50939209 255.49403809 -31.85400391 255.75097656 C-36.66084606 256.58343137 -41.26880035 256.94445601 -46.15087891 256.90869141 C-47.21633942 256.90269928 -48.28179993 256.89670715 -49.37954712 256.89053345 C-50.18371063 256.88282928 -50.98787415 256.87512512 -51.81640625 256.8671875 C-51.81087549 257.66966164 -51.80534473 258.47213577 -51.79964638 259.29892731 C-51.66643458 278.93517092 -51.56751184 298.5713229 -51.50553322 318.20792389 C-51.47475476 327.70453749 -51.43288558 337.20084724 -51.36376953 346.69726562 C-51.30347174 354.98610969 -51.26514121 363.27473345 -51.25187528 371.5637908 C-51.24413555 375.94224465 -51.22629214 380.32006895 -51.18202591 384.69831848 C-50.76494108 427.60831574 -50.76494108 427.60831574 -59.81640625 444.8671875 C-60.80640625 444.5371875 -61.79640625 444.2071875 -62.81640625 443.8671875 C-63.69189453 441.81347656 -63.69189453 441.81347656 -64.38671875 439.1328125 C-64.64324219 438.16601562 -64.89976562 437.19921875 -65.1640625 436.203125 C-65.42058594 435.18476563 -65.67710937 434.16640625 -65.94140625 433.1171875 C-66.20566406 432.11429687 -66.46992188 431.11140625 -66.7421875 430.078125 C-68.5034427 423.33707719 -69.94215495 417.19677913 -69.93666077 410.19169617 C-69.93751519 409.53405567 -69.93836962 408.87641516 -69.93924993 408.19884616 C-69.94089228 406.00322292 -69.93540382 403.8076767 -69.92993164 401.61206055 C-69.92964947 400.03498842 -69.92980808 398.45791617 -69.93037415 396.88084412 C-69.93066097 392.60440556 -69.92478277 388.32799506 -69.91780019 384.05156302 C-69.91154756 379.5805855 -69.91096134 375.10960732 -69.90977478 370.6386261 C-69.9066671 362.17437022 -69.89846129 353.71012727 -69.88842529 345.24587709 C-69.87724668 335.60870322 -69.87174929 325.97152873 -69.86672986 316.33434999 C-69.85627822 296.51195528 -69.83868966 276.68957221 -69.81640625 256.8671875 C-70.62056976 256.87489166 -71.42473328 256.88259583 -72.25326538 256.89053345 C-73.85145615 256.89952164 -73.85145615 256.89952164 -75.48193359 256.90869141 C-77.05942886 256.92024765 -77.05942886 256.92024765 -78.66879272 256.93203735 C-83.35734563 256.83543974 -87.84373074 256.12134701 -92.44140625 255.2421875 C-93.38798096 255.06252441 -94.33455566 254.88286133 -95.30981445 254.69775391 C-118.96792451 249.97605976 -144.08214971 240.15092196 -158.16015625 219.58203125 C-162.86307593 211.87323602 -164.96101478 205.21589526 -165.0546875 196.20703125 C-165.06275925 195.46191788 -165.07083099 194.7168045 -165.07914734 193.94911194 C-165.09295619 192.37145285 -165.10369261 190.79376429 -165.11157227 189.21606445 C-165.12303882 187.62092175 -165.14340546 186.02581579 -165.1730957 184.4309082 C-165.45391946 169.3244728 -162.96881837 158.63633648 -152.81640625 146.8671875 C-144.66461586 138.6524975 -144.66461586 138.6524975 -139.79296875 136.58251953 C-137.40121204 134.97973721 -136.85976071 134.01142695 -136.01809692 131.21122742 C-135.43970677 127.62816136 -135.04257357 124.06248397 -134.69921875 120.44921875 C-134.55310449 119.10861392 -134.40470066 117.76825685 -134.25411987 116.42814636 C-133.86463563 112.90098165 -133.50896137 109.37116448 -133.15948486 105.83984375 C-132.87055103 102.97783812 -132.55778105 100.11868544 -132.24359322 97.25935841 C-128.31806781 77.66149117 -128.31806781 77.66149117 -132.19140625 59.7421875 C-137.51557274 52.73670528 -137.15388417 44.99222877 -137.12890625 36.5546875 C-137.14501953 35.47767578 -137.16113281 34.40066406 -137.17773438 33.29101562 C-137.18518655 20.98746973 -134.24751287 12.87544471 -125.98828125 3.875 C-95.99757682 -25.54336274 -32.4129483 -24.54572784 0 0 Z " fill="#71AAEC" transform="translate(316.81640625,42.1328125)"/>
<path d="M0 0 C5.94 0 11.88 0 18 0 C18.13962032 20.44683104 18.24633589 40.89352491 18.31087303 61.34073639 C18.34165149 70.83734999 18.38352067 80.33365974 18.45263672 89.83007812 C18.51293451 98.11892219 18.55126504 106.40754595 18.56453097 114.6966033 C18.5722707 119.07505715 18.59011411 123.45288145 18.63438034 127.83113098 C19.05146517 170.74112824 19.05146517 170.74112824 10 188 C9.01 187.67 8.02 187.34 7 187 C6.12451172 184.94628906 6.12451172 184.94628906 5.4296875 182.265625 C5.17316406 181.29882812 4.91664063 180.33203125 4.65234375 179.3359375 C4.39582031 178.31757813 4.13929688 177.29921875 3.875 176.25 C3.61074219 175.24710938 3.34648437 174.24421875 3.07421875 173.2109375 C1.31296355 166.46988969 -0.1257487 160.32959163 -0.12025452 153.32450867 C-0.12110894 152.66686817 -0.12196337 152.00922766 -0.12284368 151.33165866 C-0.12448603 149.13603542 -0.11899757 146.9404892 -0.11352539 144.74487305 C-0.11324322 143.16780092 -0.11340183 141.59072867 -0.1139679 140.01365662 C-0.11425472 135.73721806 -0.10837652 131.46080756 -0.10139394 127.18437552 C-0.09514131 122.713398 -0.09455509 118.24241982 -0.09336853 113.7714386 C-0.09026085 105.30718272 -0.08205504 96.84293977 -0.07201904 88.37868959 C-0.06084043 78.74151572 -0.05534304 69.10434123 -0.05032361 59.46716249 C-0.03987197 39.64476759 -0.0220819 19.82238506 0 0 Z " fill="#9E9EA2" transform="translate(247,299)"/>
<path d="M0 0 C1.32 0 2.64 0 4 0 C4.07022862 20.63686489 4.12305587 41.27370994 4.15543652 61.91067028 C4.1708742 71.49379164 4.19190419 81.07683855 4.22631836 90.65991211 C4.2563159 99.01713419 4.2755975 107.37430231 4.28226548 115.73157674 C4.28616027 120.15250635 4.29524826 124.57328167 4.31719017 128.99416161 C4.33771933 133.16462097 4.34380101 137.33486409 4.33932304 141.50536919 C4.34014096 143.02701243 4.34600803 144.54866373 4.35761642 146.07026291 C4.42533769 155.41399716 3.55657869 163.97046997 1 173 C0.67 173 0.34 173 0 173 C0 115.91 0 58.82 0 0 Z " fill="#848286" transform="translate(261,299)"/>
<path d="M0 0 C1.32 0.33 2.64 0.66 4 1 C4 57.76 4 114.52 4 173 C-0.61975459 163.76049083 -0.27779491 154.36937588 -0.22705078 144.29077148 C-0.22648583 142.71310941 -0.22680486 141.13544681 -0.22793579 139.55778503 C-0.22850704 135.29807657 -0.21678978 131.03848191 -0.20278788 126.77879977 C-0.19024239 122.31852729 -0.18910702 117.85825188 -0.18673706 113.39796448 C-0.18053348 104.96215577 -0.16413791 96.52639922 -0.14403808 88.09061342 C-0.12164408 78.48237237 -0.11067686 68.87412875 -0.10064721 59.26586807 C-0.07977064 39.51054966 -0.04461657 19.75527812 0 0 Z " fill="#8A888C" transform="translate(247,299)"/>
</svg>
